<svg xmlns="http://www.w3.org/2000/svg" viewBox="0 0 232.73 185.19"><defs><style>.cls-1{fill:#fff;}</style></defs><g id="Layer_2" data-name="Layer 2"><g id="Layer_1-2" data-name="Layer 1"><path class="cls-1" d="M26.46,74.89q-.18-1.31-.33-2.58c0-.32-.07-.64-.11-1-.1-.85-.18-1.7-.26-2.54l-.09-.91-.09-1-.13.06-.63.33-1.38.72-.76.41-1.21.67-.8.45-1.12.64-.81.48-1.07.64-.81.5-1,.64-.79.51c-.34.21-.67.43-1,.65l-.77.51-1,.67c-.25.17-.5.34-.74.52l-1,.7-.68.5-1,.78-.58.44c-.5.39-1,.78-1.49,1.18l-.18.15c-.47.38-.93.77-1.39,1.16l-.51.44-1,.83-.57.53-.83.76-.59.57L1,84.15c-.2.19-.39.39-.58.58L0,85.18c.05.2.1.41.16.61s.13.52.2.78l.3,1.06c.08.25.15.51.22.76s.23.74.35,1.11.15.48.23.71c.13.42.28.83.42,1.25.07.19.13.39.2.59.44,1.23.91,2.46,1.41,3.7.08.2.17.39.25.59.18.42.35.85.54,1.27.1.24.21.48.32.72s.34.77.52,1.16.24.51.36.77.35.74.53,1.11l.39.8c.18.36.36.72.55,1.08s.28.56.43.83.37.72.56,1.08l.45.83.6,1.08c.16.27.32.55.47.83l.63,1.08.5.84.67,1.1.5.82.73,1.16c.16.25.32.51.49.76l.06.1.53-.75.58-.82c.48-.66,1-1.33,1.45-2l.6-.82c.51-.67,1-1.35,1.55-2l.58-.76,1.72-2.15.5-.61c.69-.84,1.38-1.68,2.1-2.51l.2-.24q2.4-2.81,5-5.6l.27-.28c.62-.67,1.25-1.33,1.88-2-.2-.83-.4-1.67-.59-2.5-.05-.19-.1-.37-.14-.56-.56-2.46-1.07-4.89-1.52-7.31,0-.11,0-.23-.07-.34-.19-1.07-.38-2.13-.55-3.19-.05-.26-.08-.51-.13-.77-.14-.92-.28-1.83-.41-2.74C26.54,75.49,26.5,75.19,26.46,74.89Z"/><path class="cls-1" d="M60.32,51.22c1.1-.27,2.21-.53,3.32-.78.69-.16,1.38-.33,2.09-.48,1.22-.27,2.45-.52,3.69-.77l1.8-.36q2.77-.54,5.58-1,1.55-1.87,3.12-3.71l.43-.51q1.5-1.74,3-3.43l.56-.61c1-1.12,2-2.22,3.07-3.31l.49-.51c1.07-1.12,2.15-2.23,3.24-3.31l0,0-.65-.15-1.4-.32-2.09-.46c-.48-.1-1-.21-1.44-.3l-2-.41-1.42-.27-2.07-.36-1.36-.23L76,29.54l-1.09-.16c-1.11-.15-2.21-.3-3.3-.42l-.91-.1c-.8-.09-1.6-.18-2.39-.25l-1.28-.11-1.48-.12-.51,1.08c-.24.49-.48,1-.71,1.5l-.66,1.47c-.46,1-.92,2.1-1.37,3.18-.17.42-.35.83-.52,1.26-.24.58-.47,1.18-.7,1.77s-.36.91-.54,1.38-.45,1.2-.68,1.81l-.51,1.4-.65,1.85-.49,1.44c-.21.62-.41,1.25-.61,1.87s-.32,1-.47,1.48-.4,1.26-.59,1.9c0,.15-.09.3-.13.45.57-.16,1.16-.3,1.73-.45Z"/><path class="cls-1" d="M36.28,87q1.62-1.53,3.28-3l.63-.56q1.7-1.53,3.42-3l.5-.43c1.23-1,2.46-2.1,3.72-3.13q.47-2.81,1-5.57c.11-.61.24-1.2.36-1.8.25-1.24.5-2.47.77-3.69l.48-2.11c.26-1.1.51-2.2.78-3.28.18-.74.37-1.47.56-2.2.15-.56.29-1.14.44-1.7l-.51.15L50,57.12l-1.69.53-1.67.56c-.57.18-1.13.38-1.68.57l-1.63.57L41.65,60l-1.57.58-1.73.68-1.43.56L34,63l-1.3.58-1.72.76-1.4.66-1.15.55c0,.33.05.66.08,1,.05.64.1,1.27.16,1.91,0,.42.09.85.14,1.28.14,1.38.3,2.76.49,4.15,0,.31.07.61.11.92l.27,1.82q.12.77.24,1.56l.3,1.76c.1.55.19,1.09.29,1.64l.33,1.75c.11.57.22,1.13.34,1.7s.23,1.15.36,1.73.25,1.17.38,1.75l.39,1.71c0,.17.09.35.13.53l.07-.07c1.07-1.06,2.15-2.12,3.26-3.18Z"/><path class="cls-1" d="M32.32,131c.42-1.42.86-2.85,1.32-4.28.08-.27.17-.54.26-.81.47-1.44,1-2.88,1.45-4.32.07-.22.15-.44.23-.65q.8-2.28,1.65-4.56c-.57-1.52-1.12-3-1.65-4.55-.08-.22-.16-.44-.23-.65-.5-1.44-1-2.88-1.45-4.32-.09-.27-.18-.55-.26-.82-.46-1.43-.9-2.85-1.32-4.28l-.21-.73c-.43-1.47-.84-2.94-1.23-4.4a.19.19,0,0,1,0-.08c-.11.12-.23.23-.33.35-.45.47-.88,1-1.32,1.42l-1.08,1.19-1.29,1.43-1,1.18c-.42.49-.84,1-1.25,1.46s-.65.77-1,1.16l-1.23,1.48-.88,1.11-1.24,1.55-.22.29c-1,1.24-1.88,2.48-2.79,3.73L16.42,114l-1,1.47-.62.9.74,1.08c.29.41.57.83.87,1.24s.75,1,1.14,1.57l.8,1.11c.64.85,1.29,1.7,2,2.56l.91,1.15c.4.51.8,1,1.21,1.51l1,1.24,1.2,1.43,1.07,1.24,1.23,1.41L28,133.14l1.28,1.41,1.13,1.22.41.42a.31.31,0,0,1,0-.08c.39-1.46.8-2.93,1.23-4.4Z"/><path class="cls-1" d="M149.89,2.37l-.55-.57L148.57,1,148,.45,147.55,0l-.62.16-.78.2-1.05.3-.76.22-1.11.35-.71.22-1.25.42-.58.2c-1.23.44-2.47.91-3.71,1.41l-.58.25-1.28.54-.72.32-1.15.52-.77.36L131.37,6l-.81.39-1.08.55-.82.42-1.09.58-.82.44L125.66,9l-.82.47-1.11.64c-.27.16-.54.31-.81.48l-1.14.69-.78.48-1.24.78-.68.44A.41.41,0,0,0,119,13l.55.39,1.27.9,1.5,1.09,1.26.94c.5.37,1,.76,1.51,1.15s.83.63,1.24,1l1.55,1.24,1.19,1L130.68,22l1.08.91c.72.62,1.44,1.25,2.15,1.89l1.14,1,2,1.87,1.14,1.08c.42.4.84.79,1.26,1.2.78-.2,1.55-.38,2.32-.56l.79-.19c2.42-.55,4.83-1.06,7.21-1.5l.72-.13c.94-.17,1.87-.34,2.79-.49l1.08-.17,2.41-.37,1.2-.16,2.26-.29,1.25-.15,2.18-.22,1.25-.12.81-.08-.06-.12c-.12-.22-.23-.44-.34-.66l-.72-1.36-.41-.76-.66-1.21-.45-.79c-.22-.38-.43-.76-.65-1.13s-.31-.54-.47-.8l-.64-1.07c-.17-.27-.33-.54-.5-.8s-.43-.69-.64-1l-.51-.79c-.21-.34-.43-.67-.65-1l-.51-.76-.68-1-.51-.73c-.23-.33-.47-.65-.71-1l-.49-.68-.78-1L155,8.3c-.38-.49-.76-1-1.15-1.44l-.2-.25-1.14-1.37L152,4.72l-.83-.94-.52-.57Z"/><path class="cls-1" d="M203.62,89.4c0,.15-.06.31-.1.47-.18.8-.38,1.6-.57,2.4-.08.32-.15.63-.23.94h0l1.06,1.11L205,95.64c.49.52,1,1,1.44,1.57l1.86,2.08c.47.54,1,1.08,1.41,1.62l1.1,1.3,1.19,1.42,1.09,1.35,1.1,1.38,1.06,1.37,1.06,1.38,1,1.36c.35.47.69.94,1,1.42l1,1.34.37.53.09-.13.35-.56.87-1.36.42-.7c.25-.41.5-.81.74-1.22l.45-.75.67-1.16.44-.79c.22-.37.42-.75.63-1.12l.43-.8.58-1.1q.22-.41.42-.81l.55-1.1.4-.79c.18-.37.35-.74.52-1.11s.25-.52.37-.78l.51-1.14.33-.73c.18-.42.35-.83.52-1.25.09-.2.18-.41.26-.62.25-.62.5-1.23.73-1.85l0,0c.23-.6.45-1.19.66-1.79l.21-.62c.14-.4.28-.81.41-1.21.08-.25.15-.49.23-.73s.23-.73.34-1.1.15-.5.22-.76.21-.71.3-1.06l.21-.77.15-.62-.45-.47-.55-.55-.81-.79-.55-.52-.88-.82-.53-.48c-.33-.3-.67-.59-1-.89l-.44-.39c-1-.84-2-1.68-3.08-2.5l-.48-.37-1.13-.85-.61-.45-1.05-.76-.68-.47-1-.71-.72-.48-1-.69-.75-.48-1.07-.67-.76-.47L214,70.7l-.76-.45L212,69.58l-.75-.42-1.26-.7-.71-.38-1.43-.75-.59-.31-.13-.06-.06.56c-.05.61-.11,1.21-.17,1.81s-.1,1-.16,1.56l-.21,1.83c-.07.52-.13,1-.2,1.55s-.17,1.25-.26,1.88-.15,1-.23,1.51c-.1.65-.2,1.3-.31,2L205.31,81c-.13.7-.25,1.4-.38,2.11l-.15.76Q204.26,86.63,203.62,89.4Z"/><path class="cls-1" d="M181.51,60.34c.27,1.08.52,2.17.78,3.27l.48,2.11c.27,1.22.52,2.45.77,3.69.12.6.24,1.19.36,1.8.35,1.84.69,3.7,1,5.57q1.88,1.55,3.71,3.12c.16.15.33.29.5.43q1.74,1.5,3.42,3l.62.56q1.66,1.52,3.3,3.06l.53.52q1.68,1.59,3.29,3.21l0,.05c.07-.28.15-.57.21-.86s.13-.55.19-.82q.32-1.36.6-2.73c.06-.29.12-.58.19-.88.18-.9.36-1.79.53-2.69l.15-.83c.18-1,.34-1.89.5-2.83,0-.21.07-.42.11-.63q.85-5.23,1.32-10.31l.06-.61c.06-.67.11-1.34.16-2-.51-.24-1-.49-1.53-.72l-.92-.44c-.85-.39-1.71-.77-2.58-1.15l-.46-.2c-1-.45-2.07-.88-3.12-1.31l-.84-.33c-.77-.31-1.55-.61-2.34-.91-.4-.16-.8-.3-1.21-.45l-2-.75L188,58.84l-2-.68-1.43-.46c-.65-.22-1.32-.43-2-.63l-1.45-.45-.61-.18c.15.56.29,1.13.44,1.7C181.14,58.87,181.33,59.6,181.51,60.34Z"/><path class="cls-1" d="M145.21,35.73l.52.54q1.54,1.62,3.06,3.3c.19.2.37.41.56.62q1.53,1.68,3,3.42l.43.51q1.58,1.83,3.12,3.71,2.81.47,5.58,1l1.81.36c1.23.25,2.46.5,3.68.77.71.15,1.41.32,2.11.48,1.1.25,2.2.51,3.28.78l2.19.56c.57.15,1.15.28,1.71.44-.07-.24-.14-.49-.21-.72l-.36-1.15c-.24-.77-.48-1.54-.73-2.3l-.37-1.15-.78-2.27c-.12-.36-.25-.72-.38-1.08-.28-.8-.57-1.59-.86-2.38-.12-.29-.22-.6-.34-.89-.36-1-.73-1.89-1.1-2.82l-.15-.38q-.66-1.63-1.35-3.24v0c-.44-1-.89-2-1.35-3l-.36-.76-.78-1.66-1.43.11-1.36.12-2.19.23-1.11.12q-1.62.2-3.24.42l-1.34.2-2,.3-1.53.26-1.88.33-1.59.3-1.85.37-1.62.34-1.85.41-1.64.37-.55.13.06.06C143.09,33.53,144.15,34.62,145.21,35.73Z"/><path class="cls-1" d="M198.83,106.84c-.47,1.44-1,2.88-1.45,4.32-.07.21-.15.42-.22.64q-.81,2.28-1.66,4.56c.58,1.53,1.12,3,1.66,4.57l.22.63c.5,1.45,1,2.89,1.45,4.34.09.26.18.53.26.8.46,1.43.9,2.86,1.32,4.28l.21.74q.65,2.19,1.23,4.38s0,.06,0,.09l.62-.65.58-.63c.63-.67,1.25-1.35,1.86-2l.64-.72c.59-.66,1.17-1.33,1.75-2l.61-.72c.6-.7,1.19-1.41,1.77-2.11l.48-.58c.71-.86,1.4-1.73,2.08-2.6l.07-.09q2.16-2.76,4.13-5.55l.38-.54q.57-.81,1.11-1.62l-1-1.46-.53-.75c-.61-.87-1.24-1.73-1.88-2.59l-.07-.11c-.69-.92-1.4-1.85-2.12-2.77l-.31-.39c-.6-.76-1.21-1.53-1.83-2.29l-.64-.77c-.52-.64-1.06-1.28-1.6-1.91l-.75-.88-1.58-1.8-.8-.9q-.81-.9-1.65-1.8c-.26-.28-.52-.57-.79-.85s-.35-.37-.53-.56a.19.19,0,0,1,0,.08c-.39,1.46-.8,2.92-1.23,4.39l-.21.75c-.42,1.42-.86,2.84-1.32,4.27C199,106.29,198.92,106.56,198.83,106.84Z"/><path class="cls-1" d="M204.68,53.63c0-1.2-.07-2.38-.13-3.55l0-.59q-.11-1.77-.27-3.48c0-.16,0-.32,0-.48-.12-1.18-.25-2.35-.41-3.49a1.57,1.57,0,0,0,0-.23q-.24-1.73-.54-3.39c0-.08,0-.16,0-.24-.2-1.1-.43-2.18-.68-3.24,0-.15-.06-.31-.1-.46-.24-1-.5-2-.78-3,0-.09-.05-.19-.08-.28l-.27-.08c-1-.28-2-.54-3.05-.79l-.42-.09c-1.08-.25-2.17-.48-3.28-.68l-.21,0c-1.12-.2-2.27-.39-3.43-.55l-.21,0c-1.15-.16-2.32-.29-3.5-.41l-.46-.05c-1.15-.1-2.32-.19-3.5-.26l-.57,0c-1.17-.07-2.36-.11-3.56-.13h-.59c-1.22,0-2.45,0-3.7,0l-.51,0c-1.3,0-2.6.06-3.93.13h-.07c.09.18.17.37.26.56l.72,1.56c.22.51.45,1,.67,1.52s.47,1.08.7,1.62.43,1,.65,1.54.45,1.1.67,1.66.42,1,.62,1.58.44,1.12.65,1.68l.6,1.65c.2.56.41,1.12.61,1.69s.42,1.23.63,1.85c.33,1,.65,1.92,1,2.9.2.65.41,1.29.62,1.95s.33,1.12.5,1.68l.45,1.52h0c.71.2,1.41.41,2.11.63l1,.29q3.53,1.09,6.91,2.28l1.08.39,2.26.83,1.3.5,2,.77,1.37.56,1.82.76,1.4.6,1.72.77,1.39.64.62.28v-.07c.07-1.32.12-2.63.14-3.93,0-.17,0-.34,0-.51,0-1.25,0-2.48,0-3.7C204.69,54,204.69,53.83,204.68,53.63Z"/><path class="cls-1" d="M204.18,165.19l-.06-.66c-.21-2.26-.47-4.55-.8-6.87a.52.52,0,0,0,0-.11c-.15-1.09-.32-2.19-.5-3.29l-.12-.74c-.15-.9-.31-1.8-.48-2.71-.06-.31-.12-.62-.17-.93l-.51-2.58-.21-1c-.18-.87-.38-1.74-.58-2.62-.06-.3-.13-.61-.2-.91s-.14-.55-.2-.83l-.06,0c-1.07,1.08-2.17,2.15-3.28,3.21l-.54.51c-1.08,1-2.18,2.06-3.3,3.07l-.6.55q-1.7,1.53-3.44,3l-.48.41c-1.23,1-2.47,2.1-3.73,3.13-.31,1.86-.64,3.72-1,5.56-.12.63-.25,1.25-.38,1.87-.24,1.21-.49,2.42-.75,3.62-.15.71-.32,1.42-.49,2.13-.25,1.1-.5,2.19-.77,3.28-.18.72-.37,1.44-.56,2.16s-.29,1.17-.44,1.74a160,160,0,0,0,23.83-9.13C204.29,166.5,204.24,165.85,204.18,165.19Z"/><path class="cls-1" d="M51.78,174.55c-.19-.72-.38-1.45-.56-2.18q-.4-1.63-.78-3.3c-.16-.7-.33-1.4-.49-2.11q-.39-1.82-.75-3.66c-.13-.61-.26-1.21-.38-1.83-.35-1.84-.68-3.68-1-5.54-1.26-1-2.49-2.08-3.72-3.13l-.49-.42c-1.16-1-2.3-2-3.43-3l-.61-.56q-1.68-1.51-3.3-3l-.55-.53q-1.65-1.59-3.26-3.19L32.4,142l-.12.49c-.14.6-.28,1.21-.41,1.81l-.36,1.64c-.13.61-.26,1.22-.38,1.83s-.22,1.05-.32,1.58-.24,1.23-.35,1.85-.18,1-.26,1.52-.22,1.25-.32,1.87-.15.95-.22,1.42c-.1.65-.2,1.3-.29,1.95l0,.26c-.23,1.64-.42,3.26-.58,4.87-.05.4-.09.8-.13,1.19-.06.66-.11,1.3-.16,1.95,0,.32-.06.65-.08,1a162.06,162.06,0,0,0,23.83,9.14C52.07,175.72,51.93,175.13,51.78,174.55Z"/><path class="cls-1" d="M204.93,149.63c.13.66.24,1.32.36,2,.09.5.18,1,.26,1.52s.21,1.26.3,1.88.17,1.05.24,1.58.17,1.22.25,1.84l.21,1.59.21,1.8c.06.53.11,1.05.16,1.58s.12,1.19.17,1.79l.06.57c10.4-5.3,19-11.42,25.58-18.21,0-.22-.1-.43-.16-.64s-.13-.51-.2-.76-.2-.72-.31-1.08l-.21-.74c-.11-.37-.23-.75-.35-1.13-.08-.23-.15-.46-.22-.69-.14-.42-.29-.85-.44-1.28-.06-.18-.12-.37-.19-.56-.43-1.23-.91-2.46-1.41-3.71-.08-.18-.16-.36-.23-.54-.18-.44-.37-.88-.56-1.32-.1-.23-.2-.46-.31-.69-.17-.4-.35-.79-.53-1.18s-.23-.51-.35-.76-.35-.75-.54-1.12-.26-.53-.39-.79-.36-.74-.55-1.11l-.41-.79-.59-1.11-.43-.8-.62-1.12-.45-.79c-.22-.38-.44-.77-.67-1.15l-.45-.76-.73-1.21L221,121l-.85-1.35c-.13-.19-.24-.38-.36-.57l-.09-.12c-.1.15-.22.31-.33.46-.34.5-.7,1-1.05,1.49s-.6.83-.91,1.24-.73,1-1.11,1.51l-.93,1.22c-.39.5-.78,1-1.18,1.51s-.63.8-1,1.19-.82,1-1.24,1.54-.63.75-1,1.12c-.44.53-.88,1.07-1.34,1.6l-.72.82q-1.56,1.8-3.2,3.58l-.71.78c-.5.54-1,1.07-1.52,1.61l-.83.87h0c.09.37.17.73.26,1.09.18.75.36,1.49.53,2.23.08.32.14.63.21.94q.53,2.37,1,4.71C204.78,148.87,204.86,149.25,204.93,149.63Z"/><path class="cls-1" d="M25.58,165.76l.09-1,.09-.9c.08-.84.16-1.68.26-2.53,0-.32.07-.64.11-1q.15-1.26.33-2.55c0-.31.08-.62.13-.94.13-.89.26-1.79.41-2.69,0-.27.08-.54.13-.82.17-1,.35-2.09.55-3.14,0-.13,0-.25.07-.38q.67-3.63,1.52-7.31l.12-.48c.2-.86.4-1.72.61-2.58-.55-.57-1.08-1.15-1.62-1.72-.19-.2-.39-.4-.57-.61-1.7-1.82-3.34-3.66-4.92-5.5l-.45-.53c-.63-.74-1.24-1.48-1.85-2.21l-.65-.81q-.8-1-1.56-1.95l-.71-.91-1.42-1.86-.71-1-1.33-1.83-.69-1L13,119l-.06.09-.49.76L11.76,121c-.17.27-.34.54-.5.81s-.45.74-.67,1.11-.33.55-.5.83-.42.72-.62,1.08l-.48.84-.6,1.07-.45.84c-.19.36-.38.71-.56,1.07l-.43.83c-.19.36-.37.72-.55,1.08l-.39.81c-.18.37-.36.73-.53,1.1s-.25.52-.36.78-.35.77-.52,1.15-.22.48-.32.72c-.19.43-.36.85-.54,1.28l-.25.58c-.5,1.24-1,2.48-1.41,3.7l-.2.6c-.15.41-.29.83-.42,1.24l-.23.71c-.12.37-.24.75-.35,1.12s-.14.5-.22.75l-.3,1.06c-.07.26-.13.52-.2.78s-.11.41-.16.62C6.57,154.33,15.17,160.45,25.58,165.76Z"/><path class="cls-1" d="M101,32.1l.7.21c1.43.42,2.86.86,4.3,1.32l.79.25c1.45.47,2.9,1,4.35,1.46l.62.22q2.28.8,4.58,1.66c1.52-.58,3-1.13,4.57-1.66l.62-.22c1.45-.5,2.9-1,4.35-1.46l.79-.25c1.44-.46,2.87-.9,4.3-1.32l.7-.21c1.48-.43,3-.84,4.43-1.24h.05l-.55-.52-.88-.82c-.59-.55-1.17-1.08-1.76-1.61l-1-.85-1.74-1.52-.94-.81-1.82-1.52-.86-.71c-.71-.58-1.42-1.14-2.12-1.7l-.56-.44c-.91-.71-1.81-1.4-2.72-2.08l-.34-.25c-.78-.58-1.57-1.14-2.35-1.7l-.85-.59-1.38-1-.91.63c-.48.33-1,.66-1.45,1l-1.19.86c-1,.7-1.92,1.42-2.88,2.15l-1.08.82c-.48.37-.95.75-1.42,1.13l-1.24,1-1.4,1.16c-.42.35-.84.69-1.25,1s-.93.79-1.39,1.19l-1.25,1.1-1.38,1.22-1.25,1.15c-.45.42-.91.83-1.36,1.26l-.37.35h.06C98.07,31.26,99.55,31.67,101,32.1Z"/><path class="cls-1" d="M87.16,1c-.26-.08-.53-.14-.8-.21l-.6-.16L85.33,1l-.6.6c-.25.24-.49.49-.73.74s-.39.41-.58.61l-.75.81-.54.6-.81.92-.47.54c-.37.43-.74.88-1.11,1.33l-.24.29c-.38.47-.76,1-1.13,1.43l-.44.58-.78,1-.5.69c-.24.32-.47.64-.7,1s-.35.49-.52.74l-.67,1-.51.78c-.22.32-.44.65-.65,1s-.34.54-.52.81l-.63,1c-.17.28-.34.55-.5.83l-.63,1-.49.83-.63,1.1-.46.82-.65,1.18-.43.79L68,25.34l-.36.71-.06.12.79.07,1.3.12,2.11.22,1.33.16,2.15.27,1.31.18,2.24.35,1.25.19,2.47.44,1,.18q3.52.66,7.1,1.49l1.21.28,2,.47c.67-.65,1.34-1.28,2-1.91l.25-.24c1.85-1.73,3.72-3.39,5.6-5l.25-.22c.83-.7,1.66-1.4,2.49-2.08l.63-.51,2.13-1.7.77-.6c.67-.52,1.35-1,2-1.53l.82-.61,2-1.45.82-.58.74-.53-.11-.07-.69-.44-1.23-.78-.77-.47-1.15-.7-.81-.48-1.11-.64-.82-.47L106.56,9l-.83-.45L104.65,8l-.82-.43L102.75,7l-.81-.4-1.1-.52-.78-.37-1.15-.52-.72-.32-1.28-.54-.58-.24c-1.24-.51-2.48-1-3.7-1.41L92,2.46l-1.23-.41-.72-.23L89,1.47l-.77-.22Z"/><path class="cls-1" d="M31.18,31.18c0,.09-.05.19-.08.29-.27,1-.54,2-.78,3,0,.15-.07.31-.1.46-.24,1.06-.47,2.14-.67,3.24,0,.08,0,.16-.05.25-.2,1.11-.38,2.23-.54,3.38l0,.23c-.16,1.15-.29,2.31-.41,3.49,0,.16,0,.32-.05.48-.11,1.14-.19,2.3-.26,3.47,0,.2,0,.4,0,.6-.06,1.17-.1,2.35-.13,3.55,0,.2,0,.4,0,.61q0,1.82,0,3.69c0,.17,0,.34,0,.51,0,1.3.07,2.61.14,3.93v.07l.77-.35L30,61.61l2.09-.94,1.07-.46c.72-.31,1.45-.61,2.19-.91.34-.14.68-.29,1-.42l2.39-.94.9-.34c.93-.36,1.87-.7,2.83-1l.52-.19Q46.5,55.16,50.1,54l.57-.17,2.47-.73c.26-.91.53-1.8.8-2.69l.09-.31c.75-2.43,1.53-4.82,2.36-7.16l.09-.25c.37-1,.75-2.08,1.14-3.11.09-.24.18-.48.28-.73.33-.86.66-1.71,1-2.56.12-.3.25-.6.37-.91.32-.77.64-1.54,1-2.3l.42-1c.32-.73.65-1.45,1-2.17l.46-1,.36-.79h-.08c-1.32-.06-2.62-.11-3.91-.13h-.52q-1.87,0-3.69,0h-.6c-1.2,0-2.39.06-3.56.13l-.58,0c-1.18.07-2.34.16-3.49.26l-.46.05c-1.18.12-2.36.25-3.51.41l-.21,0c-1.16.16-2.3.35-3.42.55l-.22,0c-1.11.2-2.19.43-3.27.68l-.42.09c-1,.25-2.06.51-3.06.79Z"/><path class="cls-1" d="M106.91,120.46a2.47,2.47,0,0,1,2.29-3.38h15.1a2.46,2.46,0,0,1,2.28,3.38,10.57,10.57,0,0,1-19.67,0Z"/><path class="cls-1" d="M140.85,129.35a1.49,1.49,0,0,1,2.41,1.58c-1.76,5.4-6.13,12-13.57,14.81-7.26,2.72-15.69,1.13-21.13-1.46a1.49,1.49,0,0,1,.59-2.85A50.39,50.39,0,0,0,125.7,138,50,50,0,0,0,140.85,129.35Z"/><path class="cls-1" d="M198.9,136.28c-.13-.46-.25-.92-.38-1.39s-.26-.9-.38-1.35l-.42-1.44-.39-1.32c-.15-.49-.3-1-.46-1.47s-.26-.87-.4-1.31l-.48-1.49-.42-1.29c-.17-.52-.35-1-.53-1.54s-.27-.83-.42-1.24c-.19-.57-.4-1.13-.6-1.7l-.39-1.09c-.34-.92-.68-1.85-1-2.78l-.19-.51.19-.51c.35-.93.69-1.86,1-2.78L194,112c.2-.56.41-1.13.6-1.69.15-.41.28-.82.42-1.23s.36-1,.53-1.55l.42-1.29.48-1.49c.14-.44.27-.87.4-1.31s.31-1,.46-1.46l.39-1.33.42-1.43c.12-.46.25-.91.38-1.36s.25-.93.38-1.39l.36-1.39c.09-.32.18-.65.26-1-.24-.23-.47-.47-.71-.71l-1-1c-.32-.33-.65-.65-1-1l-1.06-1-1-1-1.07-1-1.05-1-1.08-1c-.36-.34-.74-.67-1.11-1s-.7-.64-1-.95l-1.19-1.05-1-.88-1.39-1.18c-.28-.24-.56-.49-.85-.72l-2.27-1.89-.43-.35-.09-.54c-.32-2-.66-3.91-1-5.84-.12-.65-.26-1.28-.39-1.92-.26-1.28-.51-2.56-.79-3.83-.17-.75-.35-1.49-.52-2.24-.27-1.13-.53-2.27-.81-3.38-.19-.77-.4-1.52-.6-2.28-.25-.94-.49-1.88-.75-2.81l-.13,0-2.61-.7c-.78-.21-1.55-.42-2.35-.62-1.1-.28-2.23-.54-3.35-.79-.76-.18-1.52-.37-2.28-.54-1.25-.27-2.52-.52-3.79-.77l-2-.41q-2.9-.56-5.84-1l-.55-.09-.34-.42-1.89-2.29-.61-.71-1.31-1.54-.71-.81-1.23-1.4-.77-.85c-.39-.45-.79-.89-1.18-1.32l-.82-.88L144.36,39l-.85-.89L142.37,37l-.88-.9-1.13-1.15-.48-.48-.42-.42-.81-.79-1.09.28-1.24.33-1.51.41-.68.19-.56.16-1.52.44-1.25.37-1.55.48-1.22.37-1.62.53-1.16.38-1.72.58-1.06.36-1.93.69-.86.3-2.8,1-.51.2-.51-.2-2.79-1-1-.35-1.8-.64c-.38-.14-.77-.27-1.15-.39l-1.64-.56-1.19-.39-1.59-.52-1.21-.37-1.57-.48L100.71,35c-.51-.15-1-.31-1.55-.45l-.56-.16L98,34.24l-1.54-.43-1.22-.32-1.1-.28-.81.79-.42.42-.49.48-1.12,1.15-.88.9-1.14,1.19-.85.89-1.16,1.26c-.28.29-.54.58-.81.88s-.8.87-1.19,1.32c-.26.28-.52.56-.77.85-.42.47-.83.94-1.24,1.42-.23.26-.47.52-.7.79L81.19,47.1l-.6.7L78.7,50.09l-.35.42-.54.09q-2.94.48-5.85,1L70,52c-1.27.25-2.54.5-3.79.77L64,53.34c-1.13.26-2.26.52-3.37.8-.79.19-1.55.41-2.33.61l-2.76.74c-.25.91-.49,1.82-.73,2.73s-.42,1.57-.63,2.37c-.27,1.1-.53,2.23-.79,3.35-.18.76-.36,1.51-.53,2.27-.08.36-.15.71-.22,1.07-.2.92-.38,1.85-.57,2.78-.13.63-.27,1.26-.39,1.89q-.55,2.91-1,5.85l-.09.54-.43.34c-.77.64-1.53,1.26-2.28,1.9l-.71.6L45.56,82.5l-.84.73-1.38,1.21-.89.8-1.27,1.15-.92.86-1.21,1.12-.95.89L37,90.35l-1,.94-1.06,1-1,1-.73.73.27,1c.11.44.23.88.34,1.33s.27,1,.41,1.45.23.86.36,1.29.29,1,.43,1.5.25.84.38,1.26.31,1,.47,1.53.25.83.39,1.25.33,1,.5,1.55.26.82.4,1.24.36,1,.54,1.59c.13.39.27.79.41,1.19.19.58.4,1.15.61,1.72.12.36.25.71.38,1.07.33.92.68,1.85,1,2.78l.19.51-.19.51c-.35.93-.7,1.86-1,2.78-.14.36-.26.72-.39,1.09-.2.56-.41,1.13-.6,1.7l-.42,1.22c-.18.52-.36,1-.53,1.56s-.28.84-.41,1.26-.33,1-.49,1.52-.27.85-.4,1.28-.31,1-.46,1.5-.25.86-.38,1.28-.29,1-.43,1.49-.24.87-.37,1.3-.27,1-.4,1.44-.23.89-.34,1.34l-.27,1,.73.73,1,1,1.05,1,1,1c.36.36.74.71,1.11,1.06l1,.93,1.16,1.07,1,.9,1.21,1.09,1,.87,1.29,1.12.92.81c.48.42,1,.82,1.45,1.23l.8.68L50.09,154l.43.35.09.54c.32,2,.66,3.88,1,5.81.12.67.27,1.33.4,2,.25,1.25.5,2.51.78,3.74.17.8.37,1.59.55,2.38.25,1.09.5,2.18.77,3.25.21.85.44,1.67.66,2.51s.46,1.77.71,2.64a204.65,204.65,0,0,0,22.3,4.88c6.46,1.07,13.2,1.86,20,2.37a246.62,246.62,0,0,0,37.07,0c6.83-.51,13.57-1.3,20-2.37a208.23,208.23,0,0,0,22.32-4.88c.25-.91.49-1.82.73-2.74s.42-1.57.62-2.37c.28-1.11.54-2.23.8-3.36.17-.76.36-1.5.53-2.27.28-1.27.53-2.55.79-3.83.13-.64.27-1.27.39-1.91q.56-2.89,1-5.84l.09-.54.43-.35,2.28-1.89.78-.66,1.46-1.25c.31-.26.6-.53.9-.79l1.31-1.14.94-.85c.41-.37.83-.73,1.23-1.11l.95-.87,1.18-1.1,1-.91,1.13-1.08,1-.94c.36-.36.72-.7,1.07-1.06l1-1,.73-.74c-.08-.33-.17-.65-.26-1Zm-22.85-17.46A86.83,86.83,0,0,0,153,95.24l-.09,0-.55-.34h0A13.55,13.55,0,1,0,139,118.43c.15.08.3.18.44.24,20.12,7.91,28.62,15.37,32.19,20.5a59.75,59.75,0,0,1-11,17.36c-4.21,2.16-10.4,4.81-14.89,3.89,0,0,1.22,1.91,6.85,3.48a3.55,3.55,0,0,1-.31.23,14.49,14.49,0,0,1-6.54.51,7.24,7.24,0,0,0,2.89,2,59.75,59.75,0,0,1-64.39,0,7.19,7.19,0,0,0,2.87-2,14.49,14.49,0,0,1-6.51-.5l-.32-.24c5.61-1.57,6.83-3.48,6.83-3.48-4.47.92-10.63-1.71-14.85-3.87a59.67,59.67,0,0,1-11-17.38c3.56-5.13,12.06-12.59,32.16-20.5a2.63,2.63,0,0,0,.44-.24A13.55,13.55,0,1,0,80.44,94.86h0s-.2.11-.56.34c0,0-.05,0-.08,0A86.67,86.67,0,0,0,56.7,118.8c0-.8-.05-1.61-.05-2.43A59.55,59.55,0,0,1,75.12,73.18c5-2.43,12.22-4,20.3-4,8.36,0,15.83,4.82,20.81,7.39,5-2.57,12.45-7.39,20.81-7.39s15.9,1.65,20.87,4.25a59.48,59.48,0,0,1,18.18,42.9C176.09,117.19,176.08,118,176.05,118.82Z"/></g></g></svg>