<?xml version="1.0" encoding="utf-8"?>
<!-- Generator: Adobe Illustrator 26.0.1, SVG Export Plug-In . SVG Version: 6.00 Build 0)  -->
<svg version="1.1" id="Layer_1" xmlns="http://www.w3.org/2000/svg" xmlns:xlink="http://www.w3.org/1999/xlink" x="0px" y="0px"
	 viewBox="0 0 200 200" style="enable-background:new 0 0 200 200;" xml:space="preserve">
<style type="text/css">
	.st0{fill:#3B8BC8;}
	.st1{fill:#FFFFFF;}
</style>
<g>
	<circle class="st0" cx="100" cy="100" r="100"/>
	<g>
		<path class="st1" d="M51.8,90.3c-0.1-0.5-0.1-0.9-0.2-1.4c0-0.2,0-0.3-0.1-0.5c-0.1-0.5-0.1-0.9-0.1-1.4c0-0.2,0-0.3,0-0.5
			c0-0.2,0-0.4,0-0.5c0,0,0,0-0.1,0c-0.1,0.1-0.2,0.1-0.3,0.2c-0.3,0.1-0.5,0.3-0.8,0.4c-0.1,0.1-0.3,0.1-0.4,0.2
			c-0.2,0.1-0.4,0.2-0.7,0.4c-0.1,0.1-0.3,0.2-0.4,0.2c-0.2,0.1-0.4,0.2-0.6,0.4c-0.1,0.1-0.3,0.2-0.4,0.3c-0.2,0.1-0.4,0.2-0.6,0.3
			c-0.1,0.1-0.3,0.2-0.4,0.3c-0.2,0.1-0.4,0.2-0.6,0.4c-0.1,0.1-0.3,0.2-0.4,0.3c-0.2,0.1-0.4,0.2-0.5,0.4c-0.1,0.1-0.3,0.2-0.4,0.3
			c-0.2,0.1-0.4,0.2-0.5,0.4c-0.1,0.1-0.3,0.2-0.4,0.3c-0.2,0.1-0.4,0.3-0.5,0.4c-0.1,0.1-0.3,0.2-0.4,0.3c-0.2,0.1-0.4,0.3-0.6,0.4
			c-0.1,0.1-0.2,0.2-0.3,0.2c-0.3,0.2-0.5,0.4-0.8,0.6c0,0-0.1,0.1-0.1,0.1c-0.3,0.2-0.5,0.4-0.8,0.6c-0.1,0.1-0.2,0.2-0.3,0.2
			c-0.2,0.2-0.3,0.3-0.5,0.5c-0.1,0.1-0.2,0.2-0.3,0.3c-0.2,0.1-0.3,0.3-0.5,0.4c-0.1,0.1-0.2,0.2-0.3,0.3c-0.1,0.1-0.3,0.3-0.4,0.4
			c-0.1,0.1-0.2,0.2-0.3,0.3c-0.1,0.1-0.2,0.2-0.2,0.2c0,0.1,0.1,0.2,0.1,0.3c0,0.1,0.1,0.3,0.1,0.4c0.1,0.2,0.1,0.4,0.2,0.6
			c0,0.1,0.1,0.3,0.1,0.4c0.1,0.2,0.1,0.4,0.2,0.6c0,0.1,0.1,0.3,0.1,0.4c0.1,0.2,0.2,0.5,0.2,0.7c0,0.1,0.1,0.2,0.1,0.3
			c0.2,0.7,0.5,1.3,0.8,2c0,0.1,0.1,0.2,0.1,0.3c0.1,0.2,0.2,0.5,0.3,0.7c0.1,0.1,0.1,0.3,0.2,0.4c0.1,0.2,0.2,0.4,0.3,0.6
			c0.1,0.1,0.1,0.3,0.2,0.4c0.1,0.2,0.2,0.4,0.3,0.6c0.1,0.1,0.1,0.3,0.2,0.4c0.1,0.2,0.2,0.4,0.3,0.6c0.1,0.2,0.2,0.3,0.2,0.5
			c0.1,0.2,0.2,0.4,0.3,0.6c0.1,0.2,0.2,0.3,0.2,0.5c0.1,0.2,0.2,0.4,0.3,0.6c0.1,0.2,0.2,0.3,0.3,0.5c0.1,0.2,0.2,0.4,0.3,0.6
			c0.1,0.2,0.2,0.3,0.3,0.5c0.1,0.2,0.2,0.4,0.4,0.6c0.1,0.1,0.2,0.3,0.3,0.4c0.1,0.2,0.3,0.4,0.4,0.6c0.1,0.1,0.2,0.3,0.3,0.4
			c0,0,0,0,0,0.1c0.1-0.1,0.2-0.3,0.3-0.4c0.1-0.2,0.2-0.3,0.3-0.5c0.3-0.4,0.5-0.7,0.8-1.1c0.1-0.1,0.2-0.3,0.3-0.4
			c0.3-0.4,0.6-0.7,0.8-1.1c0.1-0.1,0.2-0.3,0.3-0.4c0.3-0.4,0.6-0.8,0.9-1.2c0.1-0.1,0.2-0.2,0.3-0.3c0.4-0.5,0.8-0.9,1.2-1.4
			c0,0,0.1-0.1,0.1-0.1c0.9-1,1.8-2.1,2.7-3.1c0-0.1,0.1-0.1,0.1-0.2c0.3-0.4,0.7-0.7,1-1.1c-0.1-0.5-0.2-0.9-0.3-1.4
			c0-0.1,0-0.2-0.1-0.3c-0.3-1.3-0.6-2.7-0.8-4c0-0.1,0-0.1,0-0.2c-0.1-0.6-0.2-1.2-0.3-1.8c0-0.1,0-0.3-0.1-0.4
			c-0.1-0.5-0.2-1-0.2-1.5C51.9,90.6,51.8,90.5,51.8,90.3z"/>
		<path class="st1" d="M70.4,77.3c0.6-0.1,1.2-0.3,1.8-0.4c0.4-0.1,0.8-0.2,1.1-0.3c0.7-0.1,1.3-0.3,2-0.4c0.3-0.1,0.7-0.1,1-0.2
			c1-0.2,2-0.4,3.1-0.5c0.6-0.7,1.1-1.4,1.7-2c0.1-0.1,0.2-0.2,0.2-0.3c0.5-0.6,1.1-1.3,1.7-1.9c0.1-0.1,0.2-0.2,0.3-0.3
			c0.6-0.6,1.1-1.2,1.7-1.8c0.1-0.1,0.2-0.2,0.3-0.3c0.6-0.6,1.2-1.2,1.8-1.8c0,0,0,0,0,0c-0.1,0-0.2-0.1-0.4-0.1
			c-0.3-0.1-0.5-0.1-0.8-0.2c-0.4-0.1-0.8-0.2-1.1-0.3c-0.3-0.1-0.5-0.1-0.8-0.2c-0.4-0.1-0.7-0.1-1.1-0.2c-0.3-0.1-0.5-0.1-0.8-0.1
			c-0.4-0.1-0.8-0.1-1.1-0.2c-0.2,0-0.5-0.1-0.7-0.1c-0.4-0.1-0.8-0.1-1.3-0.2c-0.2,0-0.4-0.1-0.6-0.1c-0.6-0.1-1.2-0.2-1.8-0.2
			c-0.2,0-0.3,0-0.5-0.1c-0.4,0-0.9-0.1-1.3-0.1c-0.2,0-0.5,0-0.7-0.1c-0.3,0-0.5,0-0.8-0.1c-0.1,0.2-0.2,0.4-0.3,0.6
			c-0.1,0.3-0.3,0.5-0.4,0.8c-0.1,0.3-0.2,0.5-0.4,0.8c-0.3,0.6-0.5,1.2-0.8,1.7c-0.1,0.2-0.2,0.5-0.3,0.7c-0.1,0.3-0.3,0.6-0.4,1
			c-0.1,0.3-0.2,0.5-0.3,0.8c-0.1,0.3-0.2,0.7-0.4,1c-0.1,0.3-0.2,0.5-0.3,0.8c-0.1,0.3-0.2,0.7-0.4,1c-0.1,0.3-0.2,0.5-0.3,0.8
			c-0.1,0.3-0.2,0.7-0.3,1c-0.1,0.3-0.2,0.5-0.3,0.8c-0.1,0.3-0.2,0.7-0.3,1c0,0.1,0,0.2-0.1,0.2c0.3-0.1,0.6-0.2,1-0.2
			C69.6,77.5,70,77.4,70.4,77.3z"/>
		<path class="st1" d="M57.2,96.9c0.6-0.6,1.2-1.1,1.8-1.7c0.1-0.1,0.2-0.2,0.3-0.3c0.6-0.6,1.2-1.1,1.9-1.7
			c0.1-0.1,0.2-0.2,0.3-0.2c0.7-0.6,1.3-1.1,2-1.7c0.2-1,0.4-2,0.5-3.1c0.1-0.3,0.1-0.7,0.2-1c0.1-0.7,0.3-1.4,0.4-2
			c0.1-0.4,0.2-0.8,0.3-1.2c0.1-0.6,0.3-1.2,0.4-1.8c0.1-0.4,0.2-0.8,0.3-1.2c0.1-0.3,0.2-0.6,0.2-0.9c-0.1,0-0.2,0.1-0.3,0.1
			c-0.3,0.1-0.6,0.2-0.9,0.3c-0.3,0.1-0.6,0.2-0.9,0.3c-0.3,0.1-0.6,0.2-0.9,0.3c-0.3,0.1-0.6,0.2-0.9,0.3c-0.3,0.1-0.6,0.2-0.9,0.3
			c-0.3,0.1-0.6,0.2-0.9,0.3c-0.3,0.1-0.6,0.2-0.9,0.3c-0.3,0.1-0.6,0.2-0.9,0.4c-0.3,0.1-0.5,0.2-0.8,0.3c-0.5,0.2-1.1,0.4-1.6,0.7
			c-0.2,0.1-0.5,0.2-0.7,0.3c-0.3,0.1-0.6,0.3-0.9,0.4c-0.3,0.1-0.5,0.2-0.8,0.4c-0.2,0.1-0.4,0.2-0.6,0.3c0,0.2,0,0.4,0,0.5
			c0,0.3,0.1,0.7,0.1,1c0,0.2,0,0.5,0.1,0.7c0.1,0.8,0.2,1.5,0.3,2.3c0,0.2,0,0.3,0.1,0.5c0,0.3,0.1,0.7,0.1,1
			c0,0.3,0.1,0.6,0.1,0.9c0.1,0.3,0.1,0.6,0.2,1c0.1,0.3,0.1,0.6,0.2,0.9c0.1,0.3,0.1,0.6,0.2,1c0.1,0.3,0.1,0.6,0.2,0.9
			c0.1,0.3,0.1,0.6,0.2,0.9c0.1,0.3,0.1,0.6,0.2,1c0.1,0.3,0.1,0.6,0.2,0.9c0,0.1,0,0.2,0.1,0.3c0,0,0,0,0,0
			c0.6-0.6,1.2-1.2,1.8-1.7C57,97.1,57.1,97,57.2,96.9z"/>
		<path class="st1" d="M55,121c0.2-0.8,0.5-1.6,0.7-2.3c0-0.1,0.1-0.3,0.1-0.4c0.3-0.8,0.5-1.6,0.8-2.4c0-0.1,0.1-0.2,0.1-0.4
			c0.3-0.8,0.6-1.7,0.9-2.5c-0.3-0.8-0.6-1.7-0.9-2.5c0-0.1-0.1-0.2-0.1-0.4c-0.3-0.8-0.5-1.6-0.8-2.4c0-0.2-0.1-0.3-0.1-0.5
			c-0.2-0.8-0.5-1.6-0.7-2.3c0-0.1-0.1-0.3-0.1-0.4c-0.2-0.8-0.5-1.6-0.7-2.4c0,0,0,0,0,0c-0.1,0.1-0.1,0.1-0.2,0.2
			c-0.2,0.3-0.5,0.5-0.7,0.8c-0.2,0.2-0.4,0.4-0.6,0.7c-0.2,0.3-0.5,0.5-0.7,0.8c-0.2,0.2-0.4,0.4-0.6,0.6c-0.2,0.3-0.5,0.5-0.7,0.8
			c-0.2,0.2-0.4,0.4-0.5,0.6c-0.2,0.3-0.5,0.5-0.7,0.8c-0.2,0.2-0.3,0.4-0.5,0.6c-0.2,0.3-0.5,0.6-0.7,0.8c0,0.1-0.1,0.1-0.1,0.2
			c-0.5,0.7-1,1.4-1.5,2c-0.1,0.2-0.3,0.4-0.4,0.6c-0.2,0.3-0.4,0.5-0.6,0.8c-0.1,0.2-0.2,0.3-0.3,0.5c0.1,0.2,0.3,0.4,0.4,0.6
			c0.2,0.2,0.3,0.5,0.5,0.7c0.2,0.3,0.4,0.6,0.6,0.9c0.1,0.2,0.3,0.4,0.4,0.6c0.3,0.5,0.7,0.9,1.1,1.4c0.2,0.2,0.3,0.4,0.5,0.6
			c0.2,0.3,0.4,0.6,0.7,0.8c0.2,0.2,0.4,0.5,0.6,0.7c0.2,0.3,0.4,0.5,0.7,0.8c0.2,0.2,0.4,0.5,0.6,0.7c0.2,0.3,0.4,0.5,0.7,0.8
			c0.2,0.2,0.4,0.5,0.6,0.7c0.2,0.3,0.5,0.5,0.7,0.8c0.2,0.2,0.4,0.4,0.6,0.7c0.1,0.1,0.1,0.2,0.2,0.2c0,0,0,0,0,0
			c0.2-0.8,0.4-1.6,0.7-2.4C54.9,121.3,55,121.2,55,121z"/>
		<path class="st1" d="M119.5,50.5c-0.1-0.1-0.2-0.2-0.3-0.3c-0.1-0.1-0.3-0.3-0.4-0.4c-0.1-0.1-0.2-0.2-0.3-0.3
			c-0.1-0.1-0.2-0.2-0.3-0.2c-0.1,0-0.2,0.1-0.3,0.1c-0.1,0-0.3,0.1-0.4,0.1c-0.2,0.1-0.4,0.1-0.6,0.2c-0.1,0-0.3,0.1-0.4,0.1
			c-0.2,0.1-0.4,0.1-0.6,0.2c-0.1,0-0.3,0.1-0.4,0.1c-0.2,0.1-0.5,0.2-0.7,0.2c-0.1,0-0.2,0.1-0.3,0.1c-0.7,0.2-1.3,0.5-2,0.8
			c-0.1,0-0.2,0.1-0.3,0.1c-0.2,0.1-0.5,0.2-0.7,0.3c-0.1,0.1-0.3,0.1-0.4,0.2c-0.2,0.1-0.4,0.2-0.6,0.3c-0.1,0.1-0.3,0.1-0.4,0.2
			c-0.2,0.1-0.4,0.2-0.6,0.3c-0.1,0.1-0.3,0.1-0.4,0.2c-0.2,0.1-0.4,0.2-0.6,0.3c-0.1,0.1-0.3,0.2-0.4,0.2c-0.2,0.1-0.4,0.2-0.6,0.3
			c-0.2,0.1-0.3,0.2-0.5,0.2c-0.2,0.1-0.4,0.2-0.6,0.3c-0.2,0.1-0.3,0.2-0.5,0.3c-0.2,0.1-0.4,0.2-0.6,0.4c-0.1,0.1-0.3,0.2-0.4,0.3
			c-0.2,0.1-0.4,0.3-0.6,0.4c-0.1,0.1-0.3,0.2-0.4,0.3c-0.2,0.1-0.5,0.3-0.7,0.4c-0.1,0.1-0.2,0.2-0.4,0.2c0,0,0,0-0.1,0
			c0.1,0.1,0.2,0.1,0.3,0.2c0.2,0.2,0.5,0.3,0.7,0.5c0.3,0.2,0.5,0.4,0.8,0.6c0.2,0.2,0.5,0.3,0.7,0.5c0.3,0.2,0.6,0.4,0.8,0.6
			c0.2,0.2,0.5,0.3,0.7,0.5c0.3,0.2,0.6,0.5,0.9,0.7c0.2,0.2,0.4,0.3,0.7,0.5c0.3,0.2,0.6,0.5,0.9,0.8c0.2,0.2,0.4,0.3,0.6,0.5
			c0.4,0.3,0.8,0.7,1.2,1c0.2,0.2,0.4,0.4,0.6,0.6c0.4,0.3,0.8,0.7,1.1,1c0.2,0.2,0.4,0.4,0.6,0.6c0.2,0.2,0.5,0.4,0.7,0.7
			c0.4-0.1,0.8-0.2,1.3-0.3c0.1,0,0.3-0.1,0.4-0.1c1.3-0.3,2.6-0.6,4-0.8c0.1,0,0.3,0,0.4-0.1c0.5-0.1,1-0.2,1.5-0.3
			c0.2,0,0.4-0.1,0.6-0.1c0.4-0.1,0.9-0.1,1.3-0.2c0.2,0,0.4-0.1,0.7-0.1c0.4-0.1,0.8-0.1,1.2-0.2c0.2,0,0.5-0.1,0.7-0.1
			c0.4,0,0.8-0.1,1.2-0.1c0.2,0,0.5,0,0.7-0.1c0.1,0,0.3,0,0.4,0c0,0,0,0,0-0.1c-0.1-0.1-0.1-0.2-0.2-0.4c-0.1-0.2-0.3-0.5-0.4-0.7
			c-0.1-0.1-0.2-0.3-0.2-0.4c-0.1-0.2-0.2-0.4-0.4-0.7c-0.1-0.1-0.2-0.3-0.2-0.4c-0.1-0.2-0.2-0.4-0.4-0.6c-0.1-0.1-0.2-0.3-0.3-0.4
			c-0.1-0.2-0.2-0.4-0.4-0.6c-0.1-0.1-0.2-0.3-0.3-0.4c-0.1-0.2-0.2-0.4-0.4-0.6c-0.1-0.1-0.2-0.3-0.3-0.4c-0.1-0.2-0.2-0.4-0.4-0.5
			c-0.1-0.1-0.2-0.3-0.3-0.4c-0.1-0.2-0.2-0.4-0.4-0.5c-0.1-0.1-0.2-0.3-0.3-0.4c-0.1-0.2-0.3-0.4-0.4-0.5c-0.1-0.1-0.2-0.3-0.3-0.4
			c-0.1-0.2-0.3-0.4-0.4-0.6c-0.1-0.1-0.2-0.2-0.2-0.3c-0.2-0.3-0.4-0.5-0.6-0.8c0,0-0.1-0.1-0.1-0.1c-0.2-0.3-0.4-0.5-0.6-0.7
			c-0.1-0.1-0.2-0.2-0.2-0.3c-0.2-0.2-0.3-0.3-0.5-0.5c-0.1-0.1-0.2-0.2-0.3-0.3C119.8,50.8,119.6,50.7,119.5,50.5z"/>
		<path class="st1" d="M149,98.2c0,0.1,0,0.2-0.1,0.3c-0.1,0.4-0.2,0.9-0.3,1.3c0,0.2-0.1,0.3-0.1,0.5l0,0l0,0
			c0.2,0.2,0.4,0.4,0.6,0.6c0.2,0.2,0.5,0.5,0.7,0.7c0.3,0.3,0.5,0.6,0.8,0.9c0.3,0.4,0.7,0.8,1,1.1c0.3,0.3,0.5,0.6,0.8,0.9
			c0.2,0.2,0.4,0.5,0.6,0.7c0.2,0.3,0.4,0.5,0.6,0.8c0.2,0.2,0.4,0.5,0.6,0.7c0.2,0.3,0.4,0.5,0.6,0.8c0.2,0.2,0.4,0.5,0.6,0.7
			c0.2,0.3,0.4,0.5,0.6,0.8c0.2,0.2,0.4,0.5,0.6,0.7c0.2,0.3,0.4,0.5,0.6,0.8c0.2,0.2,0.3,0.5,0.5,0.7c0.1,0.1,0.1,0.2,0.2,0.3
			c0,0,0,0,0-0.1c0.1-0.1,0.1-0.2,0.2-0.3c0.2-0.2,0.3-0.5,0.5-0.7c0.1-0.1,0.2-0.3,0.2-0.4c0.1-0.2,0.3-0.4,0.4-0.7
			c0.1-0.1,0.2-0.3,0.2-0.4c0.1-0.2,0.2-0.4,0.4-0.6c0.1-0.1,0.2-0.3,0.2-0.4c0.1-0.2,0.2-0.4,0.3-0.6c0.1-0.1,0.2-0.3,0.2-0.4
			c0.1-0.2,0.2-0.4,0.3-0.6c0.1-0.1,0.2-0.3,0.2-0.4c0.1-0.2,0.2-0.4,0.3-0.6c0.1-0.1,0.1-0.3,0.2-0.4c0.1-0.2,0.2-0.4,0.3-0.6
			c0.1-0.1,0.1-0.3,0.2-0.4c0.1-0.2,0.2-0.4,0.3-0.6c0.1-0.1,0.1-0.3,0.2-0.4c0.1-0.2,0.2-0.5,0.3-0.7c0-0.1,0.1-0.2,0.1-0.3
			c0.1-0.3,0.3-0.7,0.4-1c0,0,0,0,0,0c0.1-0.3,0.2-0.7,0.4-1c0-0.1,0.1-0.2,0.1-0.3c0.1-0.2,0.2-0.4,0.2-0.7c0-0.1,0.1-0.3,0.1-0.4
			c0.1-0.2,0.1-0.4,0.2-0.6c0-0.1,0.1-0.3,0.1-0.4c0.1-0.2,0.1-0.4,0.2-0.6c0-0.1,0.1-0.3,0.1-0.4c0-0.1,0.1-0.2,0.1-0.3
			c-0.1-0.1-0.2-0.2-0.3-0.3c-0.1-0.1-0.2-0.2-0.3-0.3c-0.1-0.1-0.3-0.3-0.4-0.4c-0.1-0.1-0.2-0.2-0.3-0.3c-0.2-0.1-0.3-0.3-0.5-0.4
			c-0.1-0.1-0.2-0.2-0.3-0.3c-0.2-0.2-0.4-0.3-0.6-0.5c-0.1-0.1-0.2-0.1-0.2-0.2c-0.5-0.5-1.1-0.9-1.7-1.4c-0.1-0.1-0.2-0.1-0.3-0.2
			c-0.2-0.2-0.4-0.3-0.6-0.5c-0.1-0.1-0.2-0.2-0.3-0.2c-0.2-0.1-0.4-0.3-0.6-0.4c-0.1-0.1-0.2-0.2-0.4-0.3c-0.2-0.1-0.4-0.3-0.6-0.4
			c-0.1-0.1-0.3-0.2-0.4-0.3c-0.2-0.1-0.4-0.3-0.6-0.4c-0.1-0.1-0.3-0.2-0.4-0.3c-0.2-0.1-0.4-0.2-0.6-0.4c-0.1-0.1-0.3-0.2-0.4-0.3
			c-0.2-0.1-0.4-0.2-0.6-0.4c-0.1-0.1-0.3-0.2-0.4-0.2c-0.2-0.1-0.4-0.2-0.6-0.4c-0.1-0.1-0.3-0.2-0.4-0.2c-0.2-0.1-0.5-0.3-0.7-0.4
			c-0.1-0.1-0.3-0.1-0.4-0.2c-0.3-0.1-0.5-0.3-0.8-0.4c-0.1-0.1-0.2-0.1-0.3-0.2c0,0,0,0-0.1,0c0,0.1,0,0.2,0,0.3
			c0,0.3-0.1,0.7-0.1,1c0,0.3-0.1,0.6-0.1,0.9c0,0.3-0.1,0.7-0.1,1c0,0.3-0.1,0.6-0.1,0.8c0,0.3-0.1,0.7-0.1,1
			c0,0.3-0.1,0.6-0.1,0.8c-0.1,0.4-0.1,0.7-0.2,1.1c0,0.3-0.1,0.5-0.1,0.8c-0.1,0.4-0.1,0.8-0.2,1.2c0,0.1-0.1,0.3-0.1,0.4
			C149.4,96.2,149.2,97.2,149,98.2z"/>
		<path class="st1" d="M136.8,82.3c0.1,0.6,0.3,1.2,0.4,1.8c0.1,0.4,0.2,0.8,0.3,1.2c0.1,0.7,0.3,1.3,0.4,2c0.1,0.3,0.1,0.7,0.2,1
			c0.2,1,0.4,2,0.5,3.1c0.7,0.6,1.4,1.1,2,1.7c0.1,0.1,0.2,0.2,0.3,0.2c0.6,0.5,1.3,1.1,1.9,1.7c0.1,0.1,0.2,0.2,0.3,0.3
			c0.6,0.6,1.2,1.1,1.8,1.7c0.1,0.1,0.2,0.2,0.3,0.3c0.6,0.6,1.2,1.2,1.8,1.8c0,0,0,0,0,0c0-0.2,0.1-0.3,0.1-0.5
			c0-0.2,0.1-0.3,0.1-0.4c0.1-0.5,0.2-1,0.3-1.5c0-0.2,0.1-0.3,0.1-0.5c0.1-0.5,0.2-1,0.3-1.5c0-0.2,0.1-0.3,0.1-0.5
			c0.1-0.5,0.2-1,0.3-1.6c0-0.1,0-0.2,0.1-0.3c0.3-1.9,0.6-3.8,0.7-5.7c0-0.1,0-0.2,0-0.3c0-0.4,0.1-0.7,0.1-1.1
			c-0.3-0.1-0.6-0.3-0.8-0.4c-0.2-0.1-0.3-0.2-0.5-0.2c-0.5-0.2-0.9-0.4-1.4-0.6c-0.1,0-0.2-0.1-0.2-0.1c-0.6-0.2-1.1-0.5-1.7-0.7
			c-0.2-0.1-0.3-0.1-0.5-0.2c-0.4-0.2-0.9-0.3-1.3-0.5c-0.2-0.1-0.4-0.2-0.7-0.2c-0.4-0.1-0.7-0.3-1.1-0.4c-0.2-0.1-0.5-0.2-0.7-0.3
			c-0.4-0.1-0.7-0.2-1.1-0.4c-0.3-0.1-0.5-0.2-0.8-0.3c-0.4-0.1-0.7-0.2-1.1-0.3c-0.3-0.1-0.5-0.2-0.8-0.2c-0.1,0-0.2-0.1-0.3-0.1
			c0.1,0.3,0.2,0.6,0.2,0.9C136.6,81.5,136.7,81.9,136.8,82.3z"/>
		<path class="st1" d="M116.9,68.8c0.1,0.1,0.2,0.2,0.3,0.3c0.6,0.6,1.1,1.2,1.7,1.8c0.1,0.1,0.2,0.2,0.3,0.3
			c0.6,0.6,1.1,1.2,1.7,1.9c0.1,0.1,0.2,0.2,0.2,0.3c0.6,0.7,1.1,1.3,1.7,2c1,0.2,2,0.4,3.1,0.5c0.3,0.1,0.7,0.1,1,0.2
			c0.7,0.1,1.4,0.3,2,0.4c0.4,0.1,0.8,0.2,1.2,0.3c0.6,0.1,1.2,0.3,1.8,0.4c0.4,0.1,0.8,0.2,1.2,0.3c0.3,0.1,0.6,0.2,0.9,0.2
			c0-0.1-0.1-0.3-0.1-0.4c-0.1-0.2-0.1-0.4-0.2-0.6c-0.1-0.4-0.3-0.8-0.4-1.3c-0.1-0.2-0.1-0.4-0.2-0.6c-0.1-0.4-0.3-0.8-0.4-1.2
			c-0.1-0.2-0.1-0.4-0.2-0.6c-0.2-0.4-0.3-0.9-0.5-1.3c-0.1-0.2-0.1-0.3-0.2-0.5c-0.2-0.5-0.4-1-0.6-1.5c0-0.1-0.1-0.1-0.1-0.2
			c-0.2-0.6-0.5-1.2-0.7-1.8c0,0,0,0,0,0c-0.2-0.6-0.5-1.1-0.7-1.7c-0.1-0.1-0.1-0.3-0.2-0.4c-0.1-0.3-0.3-0.6-0.4-0.9
			c-0.3,0-0.5,0-0.8,0.1c-0.2,0-0.5,0-0.7,0.1c-0.4,0-0.8,0.1-1.2,0.1c-0.2,0-0.4,0-0.6,0.1c-0.6,0.1-1.2,0.1-1.8,0.2
			c-0.2,0-0.5,0.1-0.7,0.1c-0.4,0.1-0.7,0.1-1.1,0.2c-0.3,0-0.6,0.1-0.8,0.1c-0.3,0.1-0.7,0.1-1,0.2c-0.3,0.1-0.6,0.1-0.9,0.2
			c-0.3,0.1-0.7,0.1-1,0.2c-0.3,0.1-0.6,0.1-0.9,0.2c-0.3,0.1-0.7,0.1-1,0.2c-0.3,0.1-0.6,0.1-0.9,0.2c-0.1,0-0.2,0-0.3,0.1
			c0,0,0,0,0,0C115.8,67.6,116.3,68.2,116.9,68.8z"/>
		<path class="st1" d="M146.3,107.8c-0.3,0.8-0.5,1.6-0.8,2.4c0,0.1-0.1,0.2-0.1,0.3c-0.3,0.8-0.6,1.7-0.9,2.5
			c0.3,0.8,0.6,1.7,0.9,2.5c0,0.1,0.1,0.2,0.1,0.3c0.3,0.8,0.5,1.6,0.8,2.4c0,0.1,0.1,0.3,0.1,0.4c0.3,0.8,0.5,1.6,0.7,2.4
			c0,0.1,0.1,0.3,0.1,0.4c0.2,0.8,0.5,1.6,0.7,2.4c0,0,0,0,0,0c0.1-0.1,0.2-0.2,0.3-0.4c0.1-0.1,0.2-0.2,0.3-0.3
			c0.3-0.4,0.7-0.7,1-1.1c0.1-0.1,0.2-0.3,0.4-0.4c0.3-0.4,0.6-0.7,1-1.1c0.1-0.1,0.2-0.3,0.3-0.4c0.3-0.4,0.7-0.8,1-1.2
			c0.1-0.1,0.2-0.2,0.3-0.3c0.4-0.5,0.8-0.9,1.1-1.4c0,0,0,0,0,0c0.8-1,1.5-2,2.3-3c0.1-0.1,0.1-0.2,0.2-0.3
			c0.2-0.3,0.4-0.6,0.6-0.9c-0.2-0.3-0.4-0.5-0.6-0.8c-0.1-0.1-0.2-0.3-0.3-0.4c-0.3-0.5-0.7-0.9-1-1.4c0,0,0,0,0-0.1
			c-0.4-0.5-0.8-1-1.2-1.5c-0.1-0.1-0.1-0.1-0.2-0.2c-0.3-0.4-0.7-0.8-1-1.3c-0.1-0.1-0.2-0.3-0.3-0.4c-0.3-0.4-0.6-0.7-0.9-1
			c-0.1-0.2-0.3-0.3-0.4-0.5c-0.3-0.3-0.6-0.7-0.9-1c-0.1-0.2-0.3-0.3-0.4-0.5c-0.3-0.3-0.6-0.7-0.9-1c-0.1-0.2-0.3-0.3-0.4-0.5
			c-0.1-0.1-0.2-0.2-0.3-0.3c0,0,0,0,0,0c-0.2,0.8-0.4,1.6-0.7,2.4c0,0.1-0.1,0.3-0.1,0.4c-0.2,0.8-0.5,1.6-0.7,2.3
			C146.4,107.5,146.4,107.7,146.3,107.8z"/>
		<path class="st1" d="M149.5,78.6c0-0.7,0-1.3-0.1-1.9c0-0.1,0-0.2,0-0.3c0-0.6-0.1-1.3-0.1-1.9c0-0.1,0-0.2,0-0.3
			c-0.1-0.6-0.1-1.3-0.2-1.9c0,0,0-0.1,0-0.1c-0.1-0.6-0.2-1.2-0.3-1.9c0,0,0-0.1,0-0.1c-0.1-0.6-0.2-1.2-0.4-1.8
			c0-0.1,0-0.2-0.1-0.3c-0.1-0.6-0.3-1.1-0.4-1.7c0-0.1,0-0.1,0-0.2c0,0-0.1,0-0.1,0c-0.5-0.2-1.1-0.3-1.7-0.4c-0.1,0-0.2,0-0.2-0.1
			c-0.6-0.1-1.2-0.3-1.8-0.4c0,0-0.1,0-0.1,0c-0.6-0.1-1.2-0.2-1.9-0.3c0,0-0.1,0-0.1,0c-0.6-0.1-1.3-0.2-1.9-0.2
			c-0.1,0-0.2,0-0.3,0c-0.6-0.1-1.3-0.1-1.9-0.1c-0.1,0-0.2,0-0.3,0c-0.6,0-1.3-0.1-2-0.1c-0.1,0-0.2,0-0.3,0c-0.7,0-1.3,0-2,0
			c-0.1,0-0.2,0-0.3,0c-0.7,0-1.4,0-2.2,0.1c0,0,0,0,0,0c0,0.1,0.1,0.2,0.1,0.3c0.1,0.3,0.3,0.6,0.4,0.9c0.1,0.3,0.2,0.6,0.4,0.8
			c0.1,0.3,0.3,0.6,0.4,0.9c0.1,0.3,0.2,0.6,0.4,0.8c0.1,0.3,0.2,0.6,0.4,0.9c0.1,0.3,0.2,0.6,0.3,0.9c0.1,0.3,0.2,0.6,0.4,0.9
			c0.1,0.3,0.2,0.6,0.3,0.9c0.1,0.3,0.2,0.6,0.3,0.9c0.1,0.3,0.2,0.7,0.3,1c0.2,0.5,0.4,1.1,0.5,1.6c0.1,0.4,0.2,0.7,0.3,1.1
			c0.1,0.3,0.2,0.6,0.3,0.9c0.1,0.3,0.2,0.6,0.2,0.8l0,0l0,0c0.4,0.1,0.8,0.2,1.2,0.3c0.2,0.1,0.4,0.1,0.5,0.2
			c1.3,0.4,2.6,0.8,3.8,1.2c0.2,0.1,0.4,0.1,0.6,0.2c0.4,0.1,0.8,0.3,1.2,0.5c0.2,0.1,0.5,0.2,0.7,0.3c0.4,0.1,0.7,0.3,1.1,0.4
			c0.3,0.1,0.5,0.2,0.8,0.3c0.3,0.1,0.7,0.3,1,0.4c0.3,0.1,0.5,0.2,0.8,0.3c0.3,0.1,0.6,0.3,0.9,0.4c0.3,0.1,0.5,0.2,0.8,0.4
			c0.1,0.1,0.2,0.1,0.3,0.2c0,0,0,0,0,0c0-0.7,0.1-1.4,0.1-2.2c0-0.1,0-0.2,0-0.3c0-0.7,0-1.4,0-2C149.5,78.9,149.5,78.7,149.5,78.6
			z"/>
		<path class="st1" d="M149.3,139.8c0-0.1,0-0.2,0-0.4c-0.1-1.2-0.3-2.5-0.4-3.8c0,0,0,0,0-0.1c-0.1-0.6-0.2-1.2-0.3-1.8
			c0-0.1,0-0.3-0.1-0.4c-0.1-0.5-0.2-1-0.3-1.5c0-0.2-0.1-0.3-0.1-0.5c-0.1-0.5-0.2-0.9-0.3-1.4c0-0.2-0.1-0.4-0.1-0.5
			c-0.1-0.5-0.2-1-0.3-1.4c0-0.2-0.1-0.3-0.1-0.5c0-0.2-0.1-0.3-0.1-0.5c0,0,0,0,0,0c-0.6,0.6-1.2,1.2-1.8,1.8
			c-0.1,0.1-0.2,0.2-0.3,0.3c-0.6,0.6-1.2,1.1-1.8,1.7c-0.1,0.1-0.2,0.2-0.3,0.3c-0.6,0.6-1.2,1.1-1.9,1.7c-0.1,0.1-0.2,0.1-0.3,0.2
			c-0.7,0.6-1.4,1.2-2,1.7c-0.2,1-0.4,2-0.5,3c-0.1,0.3-0.1,0.7-0.2,1c-0.1,0.7-0.3,1.3-0.4,2c-0.1,0.4-0.2,0.8-0.3,1.2
			c-0.1,0.6-0.3,1.2-0.4,1.8c-0.1,0.4-0.2,0.8-0.3,1.2c-0.1,0.3-0.2,0.6-0.2,1c4.7-1.4,9.1-3.1,13.1-5
			C149.3,140.5,149.3,140.2,149.3,139.8z"/>
		<path class="st1" d="M65.7,144.9c-0.1-0.4-0.2-0.8-0.3-1.2c-0.1-0.6-0.3-1.2-0.4-1.8c-0.1-0.4-0.2-0.8-0.3-1.2
			c-0.1-0.7-0.3-1.3-0.4-2c-0.1-0.3-0.1-0.7-0.2-1c-0.2-1-0.4-2-0.5-3c-0.7-0.6-1.4-1.1-2-1.7c-0.1-0.1-0.2-0.2-0.3-0.2
			c-0.6-0.5-1.3-1.1-1.9-1.7c-0.1-0.1-0.2-0.2-0.3-0.3c-0.6-0.6-1.2-1.1-1.8-1.7c-0.1-0.1-0.2-0.2-0.3-0.3c-0.6-0.6-1.2-1.2-1.8-1.7
			c0,0,0,0,0,0c0,0.1,0,0.2-0.1,0.3c-0.1,0.3-0.2,0.7-0.2,1c-0.1,0.3-0.1,0.6-0.2,0.9c-0.1,0.3-0.1,0.7-0.2,1
			c-0.1,0.3-0.1,0.6-0.2,0.9c-0.1,0.3-0.1,0.7-0.2,1c-0.1,0.3-0.1,0.6-0.1,0.8c-0.1,0.3-0.1,0.7-0.2,1c0,0.3-0.1,0.5-0.1,0.8
			c-0.1,0.4-0.1,0.7-0.2,1.1c0,0,0,0.1,0,0.1c-0.1,0.9-0.2,1.8-0.3,2.7c0,0.2,0,0.4-0.1,0.7c0,0.4-0.1,0.7-0.1,1.1
			c0,0.2,0,0.4,0,0.5c4,1.9,8.4,3.6,13.1,5C65.9,145.6,65.8,145.3,65.7,144.9z"/>
		<path class="st1" d="M149.7,131.3c0.1,0.4,0.1,0.7,0.2,1.1c0,0.3,0.1,0.6,0.1,0.8c0.1,0.3,0.1,0.7,0.2,1c0,0.3,0.1,0.6,0.1,0.9
			c0,0.3,0.1,0.7,0.1,1c0,0.3,0.1,0.6,0.1,0.9c0,0.3,0.1,0.7,0.1,1c0,0.3,0.1,0.6,0.1,0.9c0,0.3,0.1,0.7,0.1,1c0,0.1,0,0.2,0,0.3
			c5.7-2.9,10.4-6.3,14-10c0-0.1-0.1-0.2-0.1-0.3c0-0.1-0.1-0.3-0.1-0.4c-0.1-0.2-0.1-0.4-0.2-0.6c0-0.1-0.1-0.3-0.1-0.4
			c-0.1-0.2-0.1-0.4-0.2-0.6c0-0.1-0.1-0.3-0.1-0.4c-0.1-0.2-0.2-0.5-0.2-0.7c0-0.1-0.1-0.2-0.1-0.3c-0.2-0.7-0.5-1.4-0.8-2
			c0-0.1-0.1-0.2-0.1-0.3c-0.1-0.2-0.2-0.5-0.3-0.7c-0.1-0.1-0.1-0.3-0.2-0.4c-0.1-0.2-0.2-0.4-0.3-0.6c-0.1-0.1-0.1-0.3-0.2-0.4
			c-0.1-0.2-0.2-0.4-0.3-0.6c-0.1-0.1-0.1-0.3-0.2-0.4c-0.1-0.2-0.2-0.4-0.3-0.6c-0.1-0.1-0.2-0.3-0.2-0.4c-0.1-0.2-0.2-0.4-0.3-0.6
			c-0.1-0.1-0.2-0.3-0.2-0.4c-0.1-0.2-0.2-0.4-0.3-0.6c-0.1-0.1-0.2-0.3-0.2-0.4c-0.1-0.2-0.2-0.4-0.4-0.6c-0.1-0.1-0.2-0.3-0.2-0.4
			c-0.1-0.2-0.3-0.4-0.4-0.7c-0.1-0.1-0.2-0.3-0.2-0.4c-0.2-0.2-0.3-0.5-0.5-0.7c-0.1-0.1-0.1-0.2-0.2-0.3c0,0,0,0,0-0.1
			c-0.1,0.1-0.1,0.2-0.2,0.3c-0.2,0.3-0.4,0.5-0.6,0.8c-0.2,0.2-0.3,0.5-0.5,0.7c-0.2,0.3-0.4,0.5-0.6,0.8c-0.2,0.2-0.3,0.4-0.5,0.7
			c-0.2,0.3-0.4,0.6-0.6,0.8c-0.2,0.2-0.3,0.4-0.5,0.7c-0.2,0.3-0.5,0.6-0.7,0.8c-0.2,0.2-0.3,0.4-0.5,0.6c-0.2,0.3-0.5,0.6-0.7,0.9
			c-0.1,0.2-0.3,0.3-0.4,0.5c-0.6,0.7-1.2,1.3-1.8,2c-0.1,0.1-0.3,0.3-0.4,0.4c-0.3,0.3-0.6,0.6-0.8,0.9c-0.2,0.2-0.3,0.3-0.5,0.5
			l0,0l0,0c0,0.2,0.1,0.4,0.1,0.6c0.1,0.4,0.2,0.8,0.3,1.2c0,0.2,0.1,0.3,0.1,0.5c0.2,0.9,0.4,1.7,0.5,2.6
			C149.6,130.9,149.6,131.1,149.7,131.3z"/>
		<path class="st1" d="M51.3,140.1c0-0.2,0-0.4,0-0.5c0-0.2,0-0.3,0-0.5c0-0.5,0.1-0.9,0.1-1.4c0-0.2,0-0.4,0.1-0.5
			c0.1-0.5,0.1-0.9,0.2-1.4c0-0.2,0-0.3,0.1-0.5c0.1-0.5,0.1-1,0.2-1.5c0-0.1,0-0.3,0.1-0.4c0.1-0.6,0.2-1.1,0.3-1.7
			c0-0.1,0-0.1,0-0.2c0.2-1.3,0.5-2.7,0.8-4c0-0.1,0-0.2,0.1-0.3c0.1-0.5,0.2-0.9,0.3-1.4c-0.3-0.3-0.6-0.6-0.9-0.9
			c-0.1-0.1-0.2-0.2-0.3-0.3c-0.9-1-1.8-2-2.7-3c-0.1-0.1-0.2-0.2-0.2-0.3c-0.3-0.4-0.7-0.8-1-1.2c-0.1-0.1-0.2-0.3-0.4-0.4
			c-0.3-0.4-0.6-0.7-0.9-1.1c-0.1-0.2-0.3-0.3-0.4-0.5c-0.3-0.3-0.5-0.7-0.8-1c-0.1-0.2-0.3-0.3-0.4-0.5c-0.2-0.3-0.5-0.7-0.7-1
			c-0.1-0.2-0.3-0.4-0.4-0.5c-0.1-0.1-0.2-0.2-0.3-0.4c0,0,0,0,0,0.1c-0.1,0.1-0.2,0.3-0.3,0.4c-0.1,0.2-0.3,0.4-0.4,0.6
			c-0.1,0.1-0.2,0.3-0.3,0.4c-0.1,0.2-0.2,0.4-0.4,0.6c-0.1,0.2-0.2,0.3-0.3,0.5c-0.1,0.2-0.2,0.4-0.3,0.6c-0.1,0.2-0.2,0.3-0.3,0.5
			c-0.1,0.2-0.2,0.4-0.3,0.6c-0.1,0.2-0.2,0.3-0.2,0.5c-0.1,0.2-0.2,0.4-0.3,0.6c-0.1,0.2-0.2,0.3-0.2,0.5c-0.1,0.2-0.2,0.4-0.3,0.6
			c-0.1,0.1-0.1,0.3-0.2,0.4c-0.1,0.2-0.2,0.4-0.3,0.6c-0.1,0.1-0.1,0.3-0.2,0.4c-0.1,0.2-0.2,0.4-0.3,0.6c-0.1,0.1-0.1,0.3-0.2,0.4
			c-0.1,0.2-0.2,0.5-0.3,0.7c0,0.1-0.1,0.2-0.1,0.3c-0.3,0.7-0.5,1.4-0.8,2c0,0.1-0.1,0.2-0.1,0.3c-0.1,0.2-0.2,0.5-0.2,0.7
			c0,0.1-0.1,0.3-0.1,0.4c-0.1,0.2-0.1,0.4-0.2,0.6c0,0.1-0.1,0.3-0.1,0.4c-0.1,0.2-0.1,0.4-0.2,0.6c0,0.1-0.1,0.3-0.1,0.4
			c0,0.1-0.1,0.2-0.1,0.3C40.9,133.9,45.6,137.2,51.3,140.1z"/>
		<path class="st1" d="M92.7,66.8c0.1,0,0.3,0.1,0.4,0.1c0.8,0.2,1.6,0.5,2.4,0.7c0.1,0,0.3,0.1,0.4,0.1c0.8,0.3,1.6,0.5,2.4,0.8
			c0.1,0,0.2,0.1,0.3,0.1c0.8,0.3,1.7,0.6,2.5,0.9c0.8-0.3,1.7-0.6,2.5-0.9c0.1,0,0.2-0.1,0.3-0.1c0.8-0.3,1.6-0.5,2.4-0.8
			c0.1,0,0.3-0.1,0.4-0.1c0.8-0.3,1.6-0.5,2.4-0.7c0.1,0,0.3-0.1,0.4-0.1c0.8-0.2,1.6-0.5,2.4-0.7c0,0,0,0,0,0
			c-0.1-0.1-0.2-0.2-0.3-0.3c-0.2-0.2-0.3-0.3-0.5-0.4c-0.3-0.3-0.6-0.6-1-0.9c-0.2-0.2-0.3-0.3-0.5-0.5c-0.3-0.3-0.6-0.6-1-0.8
			c-0.2-0.1-0.3-0.3-0.5-0.4c-0.3-0.3-0.7-0.6-1-0.8c-0.2-0.1-0.3-0.3-0.5-0.4c-0.4-0.3-0.8-0.6-1.2-0.9c-0.1-0.1-0.2-0.2-0.3-0.2
			c-0.5-0.4-1-0.8-1.5-1.1c-0.1,0-0.1-0.1-0.2-0.1c-0.4-0.3-0.9-0.6-1.3-0.9c-0.2-0.1-0.3-0.2-0.5-0.3c-0.3-0.2-0.5-0.3-0.8-0.5
			c-0.2,0.1-0.3,0.2-0.5,0.3c-0.3,0.2-0.5,0.4-0.8,0.6c-0.2,0.2-0.4,0.3-0.7,0.5c-0.5,0.4-1.1,0.8-1.6,1.2c-0.2,0.2-0.4,0.3-0.6,0.5
			c-0.3,0.2-0.5,0.4-0.8,0.6c-0.2,0.2-0.5,0.4-0.7,0.5c-0.3,0.2-0.5,0.4-0.8,0.6c-0.2,0.2-0.5,0.4-0.7,0.6c-0.3,0.2-0.5,0.4-0.8,0.7
			c-0.2,0.2-0.5,0.4-0.7,0.6c-0.3,0.2-0.5,0.4-0.8,0.7c-0.2,0.2-0.5,0.4-0.7,0.6c-0.2,0.2-0.5,0.5-0.7,0.7c-0.1,0.1-0.1,0.1-0.2,0.2
			c0,0,0,0,0,0C91.1,66.4,91.9,66.6,92.7,66.8z"/>
		<path class="st1" d="M85.1,49.8c-0.1,0-0.3-0.1-0.4-0.1c-0.1,0-0.2-0.1-0.3-0.1c-0.1,0.1-0.2,0.2-0.2,0.2
			c-0.1,0.1-0.2,0.2-0.3,0.3c-0.1,0.1-0.3,0.3-0.4,0.4c-0.1,0.1-0.2,0.2-0.3,0.3c-0.1,0.1-0.3,0.3-0.4,0.4c-0.1,0.1-0.2,0.2-0.3,0.3
			c-0.1,0.2-0.3,0.3-0.4,0.5c-0.1,0.1-0.2,0.2-0.3,0.3c-0.2,0.2-0.4,0.5-0.6,0.7c0,0.1-0.1,0.1-0.1,0.2c-0.2,0.3-0.4,0.5-0.6,0.8
			c-0.1,0.1-0.2,0.2-0.2,0.3c-0.1,0.2-0.3,0.4-0.4,0.6c-0.1,0.1-0.2,0.3-0.3,0.4c-0.1,0.2-0.3,0.4-0.4,0.5c-0.1,0.1-0.2,0.3-0.3,0.4
			c-0.1,0.2-0.2,0.4-0.4,0.5c-0.1,0.1-0.2,0.3-0.3,0.4c-0.1,0.2-0.2,0.4-0.4,0.5c-0.1,0.1-0.2,0.3-0.3,0.4c-0.1,0.2-0.2,0.4-0.3,0.6
			c-0.1,0.1-0.2,0.3-0.3,0.5c-0.1,0.2-0.2,0.4-0.3,0.6c-0.1,0.2-0.2,0.3-0.3,0.5c-0.1,0.2-0.2,0.4-0.3,0.6c-0.1,0.2-0.2,0.3-0.3,0.5
			c-0.1,0.2-0.2,0.4-0.4,0.6c-0.1,0.1-0.2,0.3-0.2,0.4c-0.1,0.2-0.3,0.5-0.4,0.7c-0.1,0.1-0.1,0.3-0.2,0.4c0,0,0,0,0,0.1
			c0.1,0,0.3,0,0.4,0c0.2,0,0.5,0,0.7,0.1c0.4,0,0.8,0.1,1.2,0.1c0.2,0,0.5,0.1,0.7,0.1c0.4,0,0.8,0.1,1.2,0.2
			c0.2,0,0.5,0.1,0.7,0.1c0.4,0.1,0.8,0.1,1.2,0.2c0.2,0,0.5,0.1,0.7,0.1c0.5,0.1,0.9,0.2,1.4,0.2c0.2,0,0.4,0.1,0.6,0.1
			c1.3,0.2,2.6,0.5,3.9,0.8c0.2,0.1,0.4,0.1,0.7,0.2c0.4,0.1,0.7,0.2,1.1,0.3c0.4-0.4,0.7-0.7,1.1-1c0,0,0.1-0.1,0.1-0.1
			c1-0.9,2-1.9,3.1-2.7c0,0,0.1-0.1,0.1-0.1c0.5-0.4,0.9-0.8,1.4-1.1c0.1-0.1,0.2-0.2,0.3-0.3c0.4-0.3,0.8-0.6,1.2-0.9
			c0.1-0.1,0.3-0.2,0.4-0.3c0.4-0.3,0.7-0.6,1.1-0.8c0.1-0.1,0.3-0.2,0.4-0.3c0.4-0.3,0.7-0.5,1.1-0.8c0.1-0.1,0.3-0.2,0.4-0.3
			c0.1-0.1,0.3-0.2,0.4-0.3c0,0,0,0-0.1,0c-0.1-0.1-0.3-0.2-0.4-0.2c-0.2-0.1-0.5-0.3-0.7-0.4c-0.1-0.1-0.3-0.2-0.4-0.3
			c-0.2-0.1-0.4-0.3-0.6-0.4c-0.1-0.1-0.3-0.2-0.4-0.3c-0.2-0.1-0.4-0.2-0.6-0.4c-0.2-0.1-0.3-0.2-0.5-0.3c-0.2-0.1-0.4-0.2-0.6-0.3
			c-0.2-0.1-0.3-0.2-0.5-0.2c-0.2-0.1-0.4-0.2-0.6-0.3c-0.2-0.1-0.3-0.2-0.5-0.2c-0.2-0.1-0.4-0.2-0.6-0.3c-0.1-0.1-0.3-0.1-0.4-0.2
			c-0.2-0.1-0.4-0.2-0.6-0.3c-0.1-0.1-0.3-0.1-0.4-0.2c-0.2-0.1-0.4-0.2-0.6-0.3c-0.1-0.1-0.3-0.1-0.4-0.2c-0.2-0.1-0.5-0.2-0.7-0.3
			c-0.1,0-0.2-0.1-0.3-0.1c-0.7-0.3-1.4-0.5-2-0.8c-0.1,0-0.2-0.1-0.3-0.1c-0.2-0.1-0.4-0.2-0.7-0.2c-0.1,0-0.3-0.1-0.4-0.1
			c-0.2-0.1-0.4-0.1-0.6-0.2c-0.1,0-0.3-0.1-0.4-0.1C85.5,49.9,85.3,49.8,85.1,49.8z"/>
		<path class="st1" d="M54.4,66.3c0,0.1,0,0.1,0,0.2c-0.2,0.5-0.3,1.1-0.4,1.7c0,0.1,0,0.2-0.1,0.2c-0.1,0.6-0.3,1.2-0.4,1.8
			c0,0,0,0.1,0,0.1c-0.1,0.6-0.2,1.2-0.3,1.9c0,0,0,0.1,0,0.1c-0.1,0.6-0.2,1.3-0.2,1.9c0,0.1,0,0.2,0,0.3c-0.1,0.6-0.1,1.3-0.1,1.9
			c0,0.1,0,0.2,0,0.3c0,0.6-0.1,1.3-0.1,1.9c0,0.1,0,0.2,0,0.3c0,0.7,0,1.3,0,2c0,0.1,0,0.2,0,0.3c0,0.7,0,1.4,0.1,2.2c0,0,0,0,0,0
			c0.1-0.1,0.3-0.1,0.4-0.2c0.2-0.1,0.4-0.2,0.6-0.3c0.4-0.2,0.8-0.3,1.1-0.5c0.2-0.1,0.4-0.2,0.6-0.3c0.4-0.2,0.8-0.3,1.2-0.5
			c0.2-0.1,0.4-0.2,0.6-0.2c0.4-0.2,0.9-0.3,1.3-0.5c0.2-0.1,0.3-0.1,0.5-0.2c0.5-0.2,1-0.4,1.6-0.6c0.1,0,0.2-0.1,0.3-0.1
			c1.3-0.4,2.6-0.9,3.9-1.3c0.1,0,0.2-0.1,0.3-0.1c0.4-0.1,0.9-0.3,1.4-0.4c0.1-0.5,0.3-1,0.4-1.5c0-0.1,0-0.1,0.1-0.2
			c0.4-1.3,0.8-2.6,1.3-3.9c0,0,0-0.1,0-0.1c0.2-0.6,0.4-1.1,0.6-1.7c0.1-0.1,0.1-0.3,0.2-0.4c0.2-0.5,0.4-0.9,0.5-1.4
			c0.1-0.2,0.1-0.3,0.2-0.5c0.2-0.4,0.4-0.8,0.5-1.3c0.1-0.2,0.2-0.4,0.2-0.5c0.2-0.4,0.4-0.8,0.5-1.2c0.1-0.2,0.2-0.4,0.2-0.5
			c0.1-0.1,0.1-0.3,0.2-0.4c0,0,0,0,0,0c-0.7,0-1.4-0.1-2.1-0.1c-0.1,0-0.2,0-0.3,0c-0.7,0-1.4,0-2,0c-0.1,0-0.2,0-0.3,0
			c-0.7,0-1.3,0-2,0.1c-0.1,0-0.2,0-0.3,0c-0.6,0-1.3,0.1-1.9,0.1c-0.1,0-0.2,0-0.3,0c-0.6,0.1-1.3,0.1-1.9,0.2c0,0-0.1,0-0.1,0
			c-0.6,0.1-1.3,0.2-1.9,0.3c0,0-0.1,0-0.1,0c-0.6,0.1-1.2,0.2-1.8,0.4c-0.1,0-0.2,0-0.2,0.1c-0.6,0.1-1.1,0.3-1.7,0.4
			C54.5,66.3,54.5,66.3,54.4,66.3z"/>
		<g>
			<path class="st1" d="M95.9,115.3c-0.3-0.9,0.3-1.9,1.3-1.9h8.3c1,0,1.6,1,1.3,1.9c-0.8,2.1-2.9,3.7-5.4,3.7
				C98.9,118.9,96.8,117.4,95.9,115.3z"/>
			<path class="st1" d="M114.5,120.2c0.6-0.6,1.6,0.1,1.3,0.9c-1,3-3.4,6.6-7.4,8.1c-4,1.5-8.6,0.6-11.6-0.8
				c-0.8-0.4-0.5-1.6,0.3-1.6c2.6,0,5.8-0.7,9.1-1.9C109.6,123.6,112.5,121.9,114.5,120.2z"/>
		</g>
		<path class="st1" d="M146.4,124c-0.1-0.3-0.1-0.5-0.2-0.8c-0.1-0.2-0.1-0.5-0.2-0.7c-0.1-0.3-0.2-0.5-0.2-0.8
			c-0.1-0.2-0.1-0.5-0.2-0.7c-0.1-0.3-0.2-0.5-0.2-0.8c-0.1-0.2-0.1-0.5-0.2-0.7c-0.1-0.3-0.2-0.5-0.3-0.8c-0.1-0.2-0.2-0.5-0.2-0.7
			c-0.1-0.3-0.2-0.6-0.3-0.8c-0.1-0.2-0.2-0.5-0.2-0.7c-0.1-0.3-0.2-0.6-0.3-0.9c-0.1-0.2-0.1-0.4-0.2-0.6c-0.2-0.5-0.4-1-0.6-1.5
			l-0.1-0.3l0.1-0.3c0.2-0.5,0.4-1,0.6-1.5c0.1-0.2,0.1-0.4,0.2-0.6c0.1-0.3,0.2-0.6,0.3-0.9c0.1-0.2,0.2-0.5,0.2-0.7
			c0.1-0.3,0.2-0.6,0.3-0.8c0.1-0.2,0.2-0.5,0.2-0.7c0.1-0.3,0.2-0.5,0.3-0.8c0.1-0.2,0.1-0.5,0.2-0.7c0.1-0.3,0.2-0.5,0.2-0.8
			c0.1-0.2,0.1-0.5,0.2-0.7c0.1-0.3,0.2-0.5,0.2-0.8c0.1-0.2,0.1-0.5,0.2-0.7c0.1-0.3,0.1-0.5,0.2-0.8c0.1-0.3,0.1-0.5,0.2-0.8
			c0-0.2,0.1-0.4,0.1-0.5c-0.1-0.1-0.3-0.3-0.4-0.4c-0.2-0.2-0.4-0.4-0.6-0.6c-0.2-0.2-0.4-0.4-0.5-0.5c-0.2-0.2-0.4-0.4-0.6-0.6
			c-0.2-0.2-0.4-0.4-0.6-0.5c-0.2-0.2-0.4-0.4-0.6-0.6c-0.2-0.2-0.4-0.4-0.6-0.5c-0.2-0.2-0.4-0.4-0.6-0.5c-0.2-0.2-0.4-0.4-0.6-0.6
			c-0.2-0.2-0.4-0.3-0.6-0.5c-0.2-0.2-0.4-0.4-0.7-0.6c-0.2-0.2-0.4-0.3-0.6-0.5c-0.3-0.2-0.5-0.4-0.8-0.6c-0.2-0.1-0.3-0.3-0.5-0.4
			c-0.4-0.3-0.8-0.7-1.2-1l-0.2-0.2l0-0.3c-0.2-1.1-0.4-2.1-0.6-3.2c-0.1-0.4-0.1-0.7-0.2-1.1c-0.1-0.7-0.3-1.4-0.4-2.1
			c-0.1-0.4-0.2-0.8-0.3-1.2c-0.1-0.6-0.3-1.2-0.4-1.9c-0.1-0.4-0.2-0.8-0.3-1.3c-0.1-0.5-0.3-1-0.4-1.5c0,0,0,0-0.1,0
			c-0.5-0.1-0.9-0.3-1.4-0.4c-0.4-0.1-0.9-0.2-1.3-0.3c-0.6-0.2-1.2-0.3-1.8-0.4c-0.4-0.1-0.8-0.2-1.3-0.3c-0.7-0.2-1.4-0.3-2.1-0.4
			c-0.4-0.1-0.7-0.2-1.1-0.2c-1.1-0.2-2.1-0.4-3.2-0.6l-0.3,0l-0.2-0.2c-0.3-0.4-0.7-0.8-1-1.3c-0.1-0.1-0.2-0.3-0.3-0.4
			c-0.2-0.3-0.5-0.6-0.7-0.8c-0.1-0.2-0.3-0.3-0.4-0.4c-0.2-0.3-0.4-0.5-0.7-0.8c-0.1-0.2-0.3-0.3-0.4-0.5c-0.2-0.2-0.4-0.5-0.7-0.7
			c-0.2-0.2-0.3-0.3-0.4-0.5c-0.2-0.2-0.4-0.5-0.6-0.7c-0.2-0.2-0.3-0.3-0.5-0.5c-0.2-0.2-0.4-0.4-0.6-0.7c-0.2-0.2-0.3-0.3-0.5-0.5
			c-0.2-0.2-0.4-0.4-0.6-0.6c-0.1-0.1-0.2-0.2-0.3-0.3l-0.2-0.2c-0.1-0.1-0.3-0.3-0.4-0.4c-0.2,0.1-0.4,0.1-0.6,0.2
			c-0.2,0.1-0.5,0.1-0.7,0.2c-0.3,0.1-0.6,0.2-0.8,0.2c-0.1,0-0.2,0.1-0.4,0.1c-0.1,0-0.2,0.1-0.3,0.1c-0.3,0.1-0.6,0.2-0.8,0.2
			c-0.2,0.1-0.5,0.1-0.7,0.2c-0.3,0.1-0.6,0.2-0.9,0.3c-0.2,0.1-0.4,0.1-0.7,0.2c-0.3,0.1-0.6,0.2-0.9,0.3c-0.2,0.1-0.4,0.1-0.6,0.2
			c-0.3,0.1-0.6,0.2-0.9,0.3c-0.2,0.1-0.4,0.1-0.6,0.2c-0.4,0.1-0.7,0.2-1.1,0.4c-0.2,0.1-0.3,0.1-0.5,0.2c-0.5,0.2-1,0.4-1.5,0.6
			l-0.3,0.1l-0.3-0.1c-0.5-0.2-1-0.4-1.5-0.6c-0.2-0.1-0.4-0.1-0.5-0.2c-0.3-0.1-0.7-0.2-1-0.4c-0.2-0.1-0.4-0.1-0.6-0.2
			c-0.3-0.1-0.6-0.2-0.9-0.3c-0.2-0.1-0.4-0.1-0.7-0.2c-0.3-0.1-0.6-0.2-0.9-0.3c-0.2-0.1-0.4-0.1-0.7-0.2c-0.3-0.1-0.6-0.2-0.9-0.3
			c-0.2-0.1-0.4-0.1-0.7-0.2c-0.3-0.1-0.6-0.2-0.9-0.2c-0.1,0-0.2-0.1-0.3-0.1c-0.1,0-0.2-0.1-0.4-0.1c-0.3-0.1-0.6-0.2-0.8-0.2
			c-0.2-0.1-0.4-0.1-0.7-0.2c-0.2-0.1-0.4-0.1-0.6-0.2c-0.1,0.1-0.3,0.3-0.4,0.4l-0.2,0.2c-0.1,0.1-0.2,0.2-0.3,0.3
			c-0.2,0.2-0.4,0.4-0.6,0.6c-0.2,0.2-0.3,0.3-0.5,0.5c-0.2,0.2-0.4,0.4-0.6,0.7c-0.2,0.2-0.3,0.3-0.5,0.5c-0.2,0.2-0.4,0.5-0.6,0.7
			c-0.2,0.2-0.3,0.3-0.4,0.5c-0.2,0.2-0.4,0.5-0.7,0.7c-0.1,0.2-0.3,0.3-0.4,0.5c-0.2,0.3-0.5,0.5-0.7,0.8c-0.1,0.1-0.3,0.3-0.4,0.4
			c-0.2,0.3-0.5,0.6-0.7,0.9c-0.1,0.1-0.2,0.3-0.3,0.4c-0.3,0.4-0.7,0.8-1,1.3l-0.2,0.2L80,77c-1.1,0.2-2.1,0.4-3.2,0.6
			c-0.4,0.1-0.7,0.1-1.1,0.2c-0.7,0.1-1.4,0.3-2.1,0.4c-0.4,0.1-0.8,0.2-1.2,0.3c-0.6,0.1-1.2,0.3-1.8,0.4c-0.4,0.1-0.9,0.2-1.3,0.3
			c-0.5,0.1-1,0.3-1.5,0.4c-0.1,0.5-0.3,1-0.4,1.5c-0.1,0.4-0.2,0.9-0.3,1.3c-0.2,0.6-0.3,1.2-0.4,1.8c-0.1,0.4-0.2,0.8-0.3,1.2
			c0,0.2-0.1,0.4-0.1,0.6c-0.1,0.5-0.2,1-0.3,1.5c-0.1,0.3-0.1,0.7-0.2,1c-0.2,1.1-0.4,2.1-0.6,3.2l0,0.3l-0.2,0.2
			c-0.4,0.3-0.8,0.7-1.3,1c-0.1,0.1-0.3,0.2-0.4,0.3c-0.3,0.2-0.6,0.5-0.8,0.7c-0.2,0.1-0.3,0.3-0.5,0.4c-0.3,0.2-0.5,0.4-0.8,0.7
			c-0.2,0.1-0.3,0.3-0.5,0.4c-0.2,0.2-0.5,0.4-0.7,0.6c-0.2,0.2-0.3,0.3-0.5,0.5c-0.2,0.2-0.4,0.4-0.7,0.6c-0.2,0.2-0.3,0.3-0.5,0.5
			c-0.2,0.2-0.4,0.4-0.6,0.6c-0.2,0.2-0.4,0.3-0.5,0.5c-0.2,0.2-0.4,0.4-0.6,0.6c-0.2,0.2-0.4,0.4-0.5,0.5c-0.1,0.1-0.3,0.3-0.4,0.4
			c0,0.2,0.1,0.4,0.1,0.6c0.1,0.2,0.1,0.5,0.2,0.7c0.1,0.3,0.1,0.5,0.2,0.8c0.1,0.2,0.1,0.5,0.2,0.7c0.1,0.3,0.2,0.5,0.2,0.8
			c0.1,0.2,0.1,0.5,0.2,0.7c0.1,0.3,0.2,0.6,0.3,0.8c0.1,0.2,0.1,0.5,0.2,0.7c0.1,0.3,0.2,0.6,0.3,0.8c0.1,0.2,0.1,0.5,0.2,0.7
			c0.1,0.3,0.2,0.6,0.3,0.9c0.1,0.2,0.1,0.4,0.2,0.7c0.1,0.3,0.2,0.6,0.3,0.9c0.1,0.2,0.1,0.4,0.2,0.6c0.2,0.5,0.4,1,0.6,1.5
			l0.1,0.3l-0.1,0.3c-0.2,0.5-0.4,1-0.6,1.5c-0.1,0.2-0.1,0.4-0.2,0.6c-0.1,0.3-0.2,0.6-0.3,0.9c-0.1,0.2-0.2,0.4-0.2,0.7
			c-0.1,0.3-0.2,0.6-0.3,0.9c-0.1,0.2-0.2,0.5-0.2,0.7c-0.1,0.3-0.2,0.6-0.3,0.8c-0.1,0.2-0.1,0.5-0.2,0.7c-0.1,0.3-0.2,0.6-0.3,0.8
			c-0.1,0.2-0.1,0.5-0.2,0.7c-0.1,0.3-0.2,0.5-0.2,0.8c-0.1,0.2-0.1,0.5-0.2,0.7c-0.1,0.3-0.1,0.5-0.2,0.8c-0.1,0.2-0.1,0.5-0.2,0.7
			c0,0.2-0.1,0.4-0.1,0.6c0.1,0.1,0.3,0.3,0.4,0.4c0.2,0.2,0.4,0.4,0.5,0.5c0.2,0.2,0.4,0.4,0.6,0.6c0.2,0.2,0.4,0.4,0.5,0.5
			c0.2,0.2,0.4,0.4,0.6,0.6c0.2,0.2,0.4,0.3,0.5,0.5c0.2,0.2,0.4,0.4,0.6,0.6c0.2,0.2,0.4,0.3,0.5,0.5c0.2,0.2,0.4,0.4,0.7,0.6
			c0.2,0.2,0.4,0.3,0.5,0.5c0.2,0.2,0.5,0.4,0.7,0.6c0.2,0.1,0.3,0.3,0.5,0.4c0.3,0.2,0.5,0.5,0.8,0.7c0.1,0.1,0.3,0.2,0.4,0.4
			c0.4,0.3,0.8,0.7,1.2,1l0.2,0.2l0,0.3c0.2,1.1,0.4,2.1,0.6,3.2c0.1,0.4,0.1,0.7,0.2,1.1c0.1,0.7,0.3,1.4,0.4,2
			c0.1,0.4,0.2,0.9,0.3,1.3c0.1,0.6,0.3,1.2,0.4,1.8c0.1,0.5,0.2,0.9,0.4,1.4c0.1,0.5,0.3,1,0.4,1.5c3.9,1.1,8,2,12.2,2.7
			c3.5,0.6,7.2,1,11,1.3c6.7,0.5,13.6,0.5,20.3,0c3.7-0.3,7.4-0.7,11-1.3c4.2-0.7,8.3-1.6,12.2-2.7c0.1-0.5,0.3-1,0.4-1.5
			c0.1-0.4,0.2-0.9,0.3-1.3c0.2-0.6,0.3-1.2,0.4-1.8c0.1-0.4,0.2-0.8,0.3-1.2c0.2-0.7,0.3-1.4,0.4-2.1c0.1-0.4,0.1-0.7,0.2-1
			c0.2-1.1,0.4-2.1,0.6-3.2l0-0.3l0.2-0.2c0.4-0.3,0.8-0.7,1.3-1c0.1-0.1,0.3-0.2,0.4-0.4c0.3-0.2,0.5-0.5,0.8-0.7
			c0.2-0.1,0.3-0.3,0.5-0.4c0.2-0.2,0.5-0.4,0.7-0.6c0.2-0.2,0.3-0.3,0.5-0.5c0.2-0.2,0.5-0.4,0.7-0.6c0.2-0.2,0.3-0.3,0.5-0.5
			c0.2-0.2,0.4-0.4,0.6-0.6c0.2-0.2,0.4-0.3,0.5-0.5c0.2-0.2,0.4-0.4,0.6-0.6c0.2-0.2,0.4-0.3,0.5-0.5c0.2-0.2,0.4-0.4,0.6-0.6
			c0.2-0.2,0.4-0.4,0.5-0.5c0.1-0.1,0.3-0.3,0.4-0.4c0-0.2-0.1-0.4-0.1-0.5C146.5,124.5,146.4,124.2,146.4,124z M133.8,114.4
			c-5.3-7.8-11.2-12-12.7-12.9c0,0,0,0,0,0c-0.2-0.1-0.3-0.2-0.3-0.2v0c-1.1-0.7-2.4-1.1-3.8-1.1c-4.1,0-7.4,3.3-7.4,7.4
			c0,2.9,1.6,5.3,4,6.6c0.1,0,0.2,0.1,0.2,0.1c11,4.3,15.7,8.4,17.6,11.2c-1.5,3.5-3.5,6.7-6,9.5c-2.3,1.2-5.7,2.6-8.2,2.1
			c0,0,0.7,1,3.8,1.9c-0.1,0-0.1,0.1-0.2,0.1c-1.3,0.3-2.5,0.5-3.6,0.3c0,0,0.3,0.5,1.6,1.1c-5.1,3.3-11.1,5.2-17.6,5.2
			c-6.5,0-12.6-1.9-17.7-5.2c1.3-0.6,1.6-1.1,1.6-1.1c-1.1,0.2-2.3,0.1-3.6-0.3c-0.1,0-0.1-0.1-0.2-0.1c3.1-0.9,3.7-1.9,3.7-1.9
			c-2.5,0.5-5.8-0.9-8.1-2.1c-2.5-2.8-4.6-6-6-9.5c2-2.8,6.6-6.9,17.6-11.2c0.1,0,0.2-0.1,0.2-0.1c2.4-1.2,4-3.7,4-6.6
			c0-4.1-3.3-7.4-7.4-7.4c-1.4,0-2.7,0.4-3.8,1.1l0,0c0,0-0.1,0.1-0.3,0.2c0,0,0,0,0,0c-1.5,1-7.4,5.1-12.7,12.9c0-0.4,0-0.9,0-1.3
			c0-9.3,3.9-17.7,10.1-23.7c2.7-1.3,6.7-2.2,11.1-2.2c4.6,0,8.7,2.6,11.4,4c2.7-1.4,6.8-4,11.4-4c4.6,0,8.7,0.9,11.4,2.3
			c6.1,5.9,10,14.3,10,23.5C133.9,113.5,133.9,113.9,133.8,114.4z"/>
	</g>
</g>
</svg>
