<svg xmlns="http://www.w3.org/2000/svg" viewBox="0 0 192.29 53.82"><defs><style>.cls-1{fill:#fff;}</style></defs><g id="Layer_2" data-name="Layer 2"><g id="Layer_1-2" data-name="Layer 1"><path class="cls-1" d="M82.13,9.47h2V21.39h3.95v2H82.13Z"/><path class="cls-1" d="M95.29,9.47h2V23.39h-2Z"/><path class="cls-1" d="M109,23.39h-1.76L104.4,9.47h2.11l1.58,9.71h0l1.61-9.71h2.11Z"/><path class="cls-1" d="M119,9.47h2V23.39h-2Z"/><path class="cls-1" d="M128.68,9.47h1.92l3,8.38h0V9.47h2V23.39h-1.87L130.72,15h0v8.37h-2Z"/><path class="cls-1" d="M143.19,12.75a3.35,3.35,0,1,1,6.69,0v.7h-2v-.7a1.35,1.35,0,1,0-2.7,0V20.1a1.35,1.35,0,1,0,2.7,0V17.48H146.3V15.72h3.58V20.1a3.35,3.35,0,1,1-6.69,0Z"/><path class="cls-1" d="M167.77,12.86H166V11.44h5v1.42h-1.74V22h-1.51Z"/><path class="cls-1" d="M176.11,11.44h1.51v4.5h1.86v-4.5H181V22h-1.5V17.27h-1.86V22h-1.51Z"/><path class="cls-1" d="M186.83,11.44h4.48v1.42h-3v3.08h2.6v1.42h-2.6v3.08h3V22h-4.48Z"/><path class="cls-1" d="M82.13,29.37h3a3.25,3.25,0,0,1,2.58,1c.68.72.9,1.6.9,3.26a5,5,0,0,1-.57,2.8,3.08,3.08,0,0,1-2.89,1.45h-1v5.43h-2Zm2,6.61h1c1.62,0,1.64-1,1.64-2.35s0-2.38-1.56-2.38h-1Z"/><path class="cls-1" d="M102.4,40.16a3.23,3.23,0,1,1-6.45,0V29.37h2V40c0,1,.52,1.44,1.23,1.44s1.23-.46,1.23-1.44V29.37h2Z"/><path class="cls-1" d="M110.15,29.37h3.2c2.37,0,3.52,1.39,3.52,4.09a3.56,3.56,0,0,1-1.72,3.48l2.15,6.35h-2.11l-1.86-5.94h-1.19v5.94h-2Zm2,6.22h1.13c1.39,0,1.61-.78,1.61-2.17s-.24-2.17-1.7-2.17h-1Z"/><path class="cls-1" d="M126.55,29.37h1.66l3.11,13.92h-2l-.59-3H126l-.58,3h-2Zm.84,4h0l-1,5h2Z"/><path class="cls-1" d="M151.58,43.29h-1.76L147,29.37h2.12l1.58,9.72h0l1.6-9.72h2.11Z"/><path class="cls-1" d="M161.55,29.37h2V43.29h-2Z"/><path class="cls-1" d="M171.35,29.37h3c2.25,0,3.5,1.35,3.5,3.6v6.51c0,2.58-1.33,3.81-3.68,3.81h-2.77Zm2,12h.92c1.11,0,1.54-.54,1.54-1.74V33c0-1.1-.37-1.72-1.54-1.72h-.92Z"/><path class="cls-1" d="M187.52,29.37h1.66l3.11,13.92h-2l-.58-3H187l-.59,3h-2Zm.84,4h0l-1,5h2Z"/><path class="cls-1" d="M7.69,21.76c0-.25-.07-.5-.1-.75l0-.27c0-.25,0-.5-.08-.74a2.11,2.11,0,0,0,0-.26l0-.28,0,0-.19.09-.4.21-.22.12-.35.19L6,20.23l-.33.18-.24.14-.3.19-.24.14-.3.19-.23.15-.29.19c-.07.05-.15.09-.22.15l-.28.19-.22.15-.28.2-.2.15-.3.23-.17.12L2,23l-.05,0-.41.34-.15.13-.27.24-.17.15-.24.22-.17.17-.22.21-.17.17L0,24.75c0,.06,0,.12.05.18l.06.23c0,.1.05.2.08.31s0,.14.07.22.06.21.1.32l.06.21c0,.12.08.24.13.36l0,.17q.19.54.42,1.08c0,.05,0,.11.07.17l.15.37a2,2,0,0,0,.1.21l.15.33c0,.08.07.15.1.23s.1.21.16.32a2.4,2.4,0,0,0,.11.23c0,.11.11.21.16.32l.12.24.17.31.13.24.17.31.14.25.18.31.15.24.19.32.15.24.21.34.14.22,0,0,.15-.22.17-.24L4.53,32l.18-.23.45-.59L5.33,31l.5-.63c0-.05.09-.11.14-.17.2-.25.4-.49.61-.73l.06-.07c.47-.55,1-1.09,1.45-1.63l.08-.08c.18-.2.36-.39.55-.58-.06-.24-.12-.49-.17-.73a.94.94,0,0,1,0-.16c-.17-.72-.32-1.42-.45-2.13,0,0,0-.06,0-.09-.06-.32-.12-.62-.17-.93l0-.23c0-.26-.09-.53-.12-.79A2.51,2.51,0,0,1,7.69,21.76Z"/><path class="cls-1" d="M17.53,14.89l1-.23.61-.14,1.07-.22.53-.11,1.62-.29.9-1.08.13-.15.88-1,.16-.18q.45-.5.9-1l.14-.15c.31-.33.62-.65.94-1v0l-.19,0-.41-.1-.6-.13-.42-.09-.59-.11-.42-.08-.6-.11-.39-.06-.67-.1-.31-.05-1-.13-.27,0-.69-.08-.37,0-.43,0-.15.31L18.7,9c-.06.14-.12.28-.19.42l-.4.93-.15.36c-.07.17-.13.35-.2.52s-.11.26-.16.4-.13.35-.19.53l-.15.4c-.07.18-.13.36-.19.54s-.1.28-.14.42l-.18.54c-.05.15-.1.29-.14.43s-.11.37-.17.55,0,.09,0,.13l.51-.12Z"/><path class="cls-1" d="M10.54,25.28l1-.89.18-.16,1-.88.15-.12c.36-.31.71-.61,1.08-.91.09-.55.19-1.09.29-1.62,0-.18.07-.35.11-.53.07-.36.14-.71.22-1.07,0-.2.09-.41.14-.61s.15-.64.23-1,.1-.42.16-.63.08-.34.13-.5l-.15,0-.5.16-.49.15-.49.17-.49.16-.47.17-.49.17-.45.17-.5.2-.42.17-.86.35-.38.17L9,18.7l-.41.2-.33.16a2.64,2.64,0,0,1,0,.28c0,.19,0,.37.05.56s0,.25,0,.37c0,.4.09.8.14,1.2a2.51,2.51,0,0,0,0,.27c0,.18.05.36.08.53l.06.45.09.52c0,.16.06.31.08.47s.07.34.1.51.06.33.1.5.07.33.1.5l.12.51c0,.16.07.33.11.49a.75.75,0,0,0,0,.16l0,0,.94-.93Z"/><path class="cls-1" d="M9.39,38.06c.13-.41.25-.82.39-1.24,0-.08.05-.16.07-.24l.42-1.25.07-.19q.23-.66.48-1.32c-.17-.45-.33-.89-.48-1.33,0-.06-.05-.12-.07-.19l-.42-1.25c0-.08,0-.16-.07-.24-.14-.42-.26-.83-.39-1.24l-.06-.22L9,28.08v0l-.1.1-.38.42-.32.34-.37.42-.3.34-.36.42-.29.34c-.11.15-.23.29-.35.43s-.17.22-.26.32l-.36.46-.06.08Q5.4,32.26,5,32.8l-.24.33-.29.42-.19.27a3.46,3.46,0,0,1,.22.31l.25.36.33.46.24.32c.18.25.37.49.57.74l.26.34c.12.14.23.29.35.44l.3.35.35.42.31.36.36.41.32.36.37.41.33.36.12.12v0l.36-1.28Z"/><path class="cls-1" d="M43.56.69,43.4.52,43.18.29,43,.13,42.88,0,42.7.05,42.47.1l-.3.09L42,.26l-.33.1-.2.06-.37.12L40.88.6,39.81,1l-.17.07-.37.16-.21.09-.34.15-.22.11-.32.15-.24.12L37.63,2l-.24.12-.32.17-.24.13-.31.17-.24.14L36,2.93l-.24.14-.33.21-.23.13-.36.23-.2.13,0,0,.16.11.37.27.44.31.36.27.44.34.36.28.45.36L37.5,6l.48.4.31.26.63.55.33.29.59.55.33.31.37.35.67-.16.23-.06c.71-.16,1.41-.31,2.1-.44l.21,0,.81-.15.31,0,.7-.1.35-.05.66-.08.36,0,.64-.06.36,0,.23,0v0a1.86,1.86,0,0,1-.1-.2l-.21-.39-.12-.22-.19-.35L47.41,6c-.07-.11-.13-.22-.19-.33s-.09-.16-.14-.23l-.19-.32-.14-.23c-.06-.1-.12-.2-.19-.3s-.09-.15-.14-.23a2.9,2.9,0,0,1-.19-.29l-.15-.22-.2-.28-.15-.22-.2-.28-.15-.2-.22-.3L45,2.41,44.7,2l-.06-.07-.33-.4-.14-.15-.23-.27L43.78.93Z"/><path class="cls-1" d="M59.17,26l0,.14c0,.23-.11.46-.16.69a2.29,2.29,0,0,1-.07.28h0l.31.32.36.38.42.46.54.6.41.48.32.37.34.41.32.4.32.4c.11.13.21.26.31.4s.21.26.31.4l.29.39.3.41.27.39.11.16,0,0,.1-.16c.09-.13.17-.26.25-.4l.13-.2.21-.35.13-.22.2-.34.13-.23.18-.32.12-.24a3.24,3.24,0,0,0,.17-.32l.12-.23c.06-.11.11-.21.16-.32l.12-.23.15-.32c0-.08.07-.16.11-.23l.15-.33.09-.22.15-.36.08-.18.21-.53v0l.19-.52.06-.18.12-.35a1.72,1.72,0,0,1,.07-.21,3,3,0,0,1,.1-.32l.06-.22.09-.31.06-.23c0-.06,0-.12,0-.18l-.13-.13c0-.06-.11-.11-.16-.16l-.24-.23-.16-.15-.25-.24-.15-.14-.3-.26-.13-.11c-.29-.25-.59-.49-.89-.73l-.14-.11-.33-.24-.18-.13-.31-.22-.19-.14-.3-.21-.21-.14-.31-.2L63,21.07l-.32-.19-.22-.14-.32-.19L62,20.42l-.35-.2-.21-.12L61,19.9l-.21-.12-.41-.21-.17-.09,0,0c0,.05,0,.11,0,.16s0,.35,0,.53,0,.3,0,.45,0,.35-.07.53,0,.3-.05.45,0,.37-.08.55,0,.29-.07.44a5.62,5.62,0,0,1-.09.57c0,.13,0,.27-.07.4s-.07.41-.11.61,0,.15,0,.23C59.41,24.91,59.3,25.44,59.17,26Z"/><path class="cls-1" d="M52.75,17.53c.08.32.15.64.22.95s.1.41.14.62.15.71.23,1.07c0,.18.07.35.1.52.11.54.2,1.08.29,1.62.37.3.73.61,1.08.91l.15.12,1,.88.18.17,1,.89.15.15,1,.93,0,0,.06-.25c0-.08,0-.16,0-.24l.18-.8a2.21,2.21,0,0,1,.05-.25l.15-.78c0-.08,0-.16,0-.24.05-.28.1-.55.14-.83l0-.18q.26-1.53.39-3c0-.06,0-.12,0-.17s0-.39,0-.58l-.44-.22-.27-.12-.75-.34-.13-.05L56.88,18l-.24-.1L56,17.58l-.35-.13-.6-.21-.39-.14-.57-.2-.42-.13-.57-.19-.42-.13-.18-.05.12.49C52.64,17.11,52.69,17.32,52.75,17.53Z"/><path class="cls-1" d="M42.2,10.38l.15.16c.3.32.6.63.89,1l.16.18.88,1,.13.15c.3.36.61.72.9,1.08l1.63.29.52.11,1.07.22.62.14,1,.22.64.17.49.12-.06-.2c0-.12-.07-.23-.1-.34s-.14-.45-.22-.67-.07-.22-.11-.33-.14-.44-.22-.66-.07-.21-.11-.31-.17-.47-.25-.69-.07-.18-.1-.26c-.1-.28-.21-.55-.32-.82,0,0,0-.08,0-.11-.13-.32-.26-.64-.4-.95h0L48.91,9l-.1-.22c-.08-.16-.16-.32-.23-.48l-.42,0-.39,0-.64.07-.32,0c-.32,0-.63.07-.94.12l-.39.05-.59.09-.45.08-.54.1-.47.08-.53.11-.47.1-.54.12-.48.1-.16,0,0,0Z"/><path class="cls-1" d="M57.78,31.05c-.13.42-.27.84-.42,1.25l-.06.19c-.16.44-.32.88-.49,1.33.17.44.33.88.49,1.32l.06.19q.22.63.42,1.26c0,.07,0,.15.08.23.13.42.26.83.38,1.25l.06.21c.13.42.25.85.36,1.27v0c0-.07.12-.13.17-.19l.17-.18.54-.59.19-.21.51-.58.18-.21.51-.61c.05-.06.09-.12.14-.17l.6-.76,0,0c.42-.54.82-1.08,1.21-1.62l.1-.15.33-.47-.29-.43-.16-.22c-.17-.25-.36-.5-.54-.75l0,0-.62-.81-.09-.11-.53-.67-.19-.22L60.44,30l-.22-.25c-.15-.18-.31-.35-.46-.52L59.53,29l-.48-.53-.23-.25-.15-.16v0c-.11.42-.23.85-.36,1.27l-.06.22c-.12.41-.25.83-.38,1.24C57.83,30.89,57.81,31,57.78,31.05Z"/><path class="cls-1" d="M59.48,15.58c0-.34,0-.69,0-1a1,1,0,0,0,0-.17c0-.34,0-.68-.07-1,0,0,0-.09,0-.14,0-.34-.07-.68-.11-1v-.07c0-.33-.1-.66-.16-1V11.1c-.06-.32-.13-.64-.2-.95l0-.13c-.07-.3-.15-.59-.23-.88l0-.08-.08,0-.89-.23-.12,0-.95-.2h-.06l-1-.16h-.06l-1-.11-.13,0-1-.08h-.16c-.34,0-.69,0-1,0H50.65l-1.14,0h0l.08.16.21.46.2.44.2.47c.06.15.12.3.19.45l.19.48.18.46c.06.16.13.32.19.49s.12.31.17.47l.18.49c.06.18.12.36.19.54l.27.85.18.56.15.49c0,.15.09.29.13.44h0l.61.18.29.09q1,.31,2,.66l.31.12c.23.08.45.15.66.24l.38.14.57.23.4.16.53.22.41.18.5.22.4.18.18.09v0c0-.39,0-.77,0-1.15a.76.76,0,0,1,0-.15V15.76A1.09,1.09,0,0,1,59.48,15.58Z"/><path class="cls-1" d="M59.34,48c0-.06,0-.12,0-.19-.06-.65-.14-1.32-.23-2v0c0-.32-.09-.64-.14-1a1.55,1.55,0,0,1,0-.21c0-.27-.09-.53-.14-.79,0-.09,0-.18,0-.27l-.15-.75-.06-.29c0-.25-.11-.5-.17-.76l-.06-.26c0-.08,0-.17-.05-.25l0,0-1,.93-.16.15c-.31.3-.63.6-1,.89L56,43.4l-1,.88-.14.12-1.09.91c-.09.55-.18,1.08-.29,1.62,0,.18-.07.36-.11.54l-.21,1.05-.15.63c-.07.31-.14.63-.22,1s-.11.42-.16.63-.09.33-.13.5a46.1,46.1,0,0,0,6.92-2.65C59.37,48.39,59.35,48.2,59.34,48Z"/><path class="cls-1" d="M15.05,50.73c-.06-.22-.11-.43-.17-.64s-.15-.64-.22-1-.1-.41-.14-.61c-.08-.35-.15-.71-.22-1.06,0-.18-.08-.36-.11-.54-.1-.53-.2-1.07-.29-1.61-.37-.3-.72-.6-1.08-.91l-.14-.12-1-.88-.18-.16-1-.89-.16-.15-.94-.93,0,0a.83.83,0,0,0,0,.15l-.12.52c0,.16-.07.32-.1.48s-.08.35-.11.53-.07.31-.1.46-.06.36-.1.54,0,.29-.07.44-.07.36-.1.54l-.06.42c0,.18-.06.37-.08.56a.22.22,0,0,0,0,.08c-.07.47-.12,1-.17,1.41,0,.12,0,.24,0,.35s0,.38-.05.57,0,.18,0,.28a45.82,45.82,0,0,0,6.93,2.65C15.13,51.07,15.09,50.89,15.05,50.73Z"/><path class="cls-1" d="M59.56,43.48c0,.2.06.39.1.58s.05.29.08.44,0,.37.08.55,0,.3.07.46,0,.35.08.53,0,.31.05.46,0,.35.07.53,0,.3,0,.45,0,.35,0,.53,0,.11,0,.16a28,28,0,0,0,7.43-5.29c0-.06,0-.13,0-.19l-.06-.22-.09-.31-.06-.22c0-.11-.07-.22-.11-.33l-.06-.2L67.09,41,67,40.88c-.13-.36-.26-.72-.41-1.08,0,0-.05-.1-.07-.16s-.1-.25-.16-.38l-.09-.2-.15-.34L66,38.5l-.15-.33-.12-.23c0-.11-.1-.21-.16-.32l-.12-.23a3.24,3.24,0,0,0-.17-.32l-.12-.24L65,36.51l-.13-.23-.2-.33-.13-.23-.21-.35-.13-.2c-.08-.13-.16-.27-.25-.4l-.1-.16,0,0-.09.14c-.1.14-.2.29-.31.43l-.26.36-.33.44c-.08.12-.18.24-.27.35s-.22.3-.34.44l-.27.35-.37.45-.27.32-.39.47-.21.23q-.45.53-.93,1.05l-.21.22c-.14.16-.29.31-.44.47l-.24.25h0l.08.32.15.65.06.27c.11.46.2.92.29,1.37C59.51,43.26,59.53,43.37,59.56,43.48Z"/><path class="cls-1" d="M7.43,48.17l0-.28a2.11,2.11,0,0,0,0-.26c0-.24,0-.49.08-.73l0-.29c0-.24.07-.49.1-.74a2.51,2.51,0,0,1,0-.27q0-.39.12-.78l0-.24c0-.3.11-.61.16-.91a.52.52,0,0,0,0-.11q.19-1.06.45-2.13l0-.14.18-.75c-.16-.16-.32-.33-.47-.5l-.17-.17c-.49-.53-1-1.07-1.43-1.6,0-.06-.09-.11-.13-.16L6,37.47a2.11,2.11,0,0,0-.19-.23l-.45-.57-.21-.27-.41-.54a2.83,2.83,0,0,1-.2-.28l-.39-.53-.2-.28-.14-.2,0,0-.14.22-.21.34-.15.24-.19.32L2.93,36l-.18.31-.14.25-.17.31-.13.24-.17.31L2,37.62l-.16.32-.11.23-.16.32c0,.08-.07.15-.1.23l-.15.34a1.86,1.86,0,0,0-.1.2l-.15.38a.87.87,0,0,0-.07.17c-.15.36-.29.71-.42,1.07,0,.06,0,.12,0,.17s-.09.24-.13.36l-.06.21c0,.11-.07.22-.1.32s-.05.15-.07.22-.06.21-.08.31l-.06.23c0,.06,0,.12,0,.18A28,28,0,0,0,7.43,48.17Z"/><path class="cls-1" d="M29.36,9.33l.2.06,1.25.38.23.08,1.27.42.18.06,1.33.49,1.33-.49.18-.06,1.26-.42.23-.08,1.25-.38.2-.06q.65-.2,1.29-.36h0l-.16-.15-.26-.24-.51-.46-.28-.25-.5-.44-.28-.24-.52-.44-.26-.21L36.2,6,36,5.91l-.8-.6-.1-.07-.68-.5-.24-.17-.4-.28-.27.19-.42.29L32.78,5c-.28.21-.56.41-.83.63l-.32.24-.41.32-.36.29-.41.34-.36.3-.4.35c-.13.1-.25.21-.37.32l-.4.35-.36.34-.4.36-.1.1h0Q28.72,9.14,29.36,9.33Z"/><path class="cls-1" d="M25.33.28,25.1.22l-.18,0L24.8.3l-.18.17-.21.22-.17.17L24,1.1l-.15.17-.24.27c0,.05-.09.1-.13.16l-.33.38-.07.09-.33.41-.12.17-.23.3-.15.2-.2.28-.15.22L21.73,4l-.15.23c-.07.09-.13.19-.19.28l-.15.24-.19.29c0,.08-.09.16-.14.24l-.18.3-.15.24-.18.32-.13.24c-.07.11-.13.23-.19.34L20,7c-.06.13-.13.26-.2.39l-.1.2,0,0,.23,0,.38,0,.61.07.39,0,.62.08.38.05.65.1.37.06.72.13.3.05c.68.13,1.37.27,2.06.43l.35.08.57.14.59-.56.07-.06c.54-.51,1.08-1,1.63-1.46l.07-.06.73-.61L30.53,6l.62-.5.22-.17L32,4.88l.24-.18.57-.42L33,4.12,33.23,4l0,0a1.37,1.37,0,0,1-.2-.13l-.36-.22-.23-.14-.33-.2-.24-.14a3.37,3.37,0,0,0-.32-.19l-.24-.14L31,2.61l-.24-.13-.32-.17-.24-.12L29.86,2l-.24-.11-.32-.16-.22-.1-.34-.15-.21-.1-.37-.15L28,1.19C27.63,1,27.27.9,26.92.78L26.74.72,26.39.59,26.18.53l-.32-.1L25.63.36Z"/><path class="cls-1" d="M9.06,9.06l0,.08c-.08.29-.16.58-.23.88l0,.13c-.07.31-.13.63-.19.95l0,.07c-.05.32-.11.65-.15,1v.07c-.05.33-.09.67-.12,1,0,0,0,.09,0,.14,0,.33,0,.67-.07,1a1,1,0,0,0,0,.17c0,.34,0,.69,0,1v.18c0,.35,0,.71,0,1.07V17c0,.38,0,.76,0,1.15v0L8.41,18l.31-.14.61-.27.31-.13.63-.27.3-.12.7-.27.26-.1.82-.3.16-.06c.67-.24,1.35-.46,2.05-.68l.17,0,.71-.22.24-.78a.29.29,0,0,1,0-.09c.22-.71.45-1.4.69-2.08l0-.07.33-.91.09-.21c.09-.25.19-.5.29-.74l.1-.27c.1-.22.19-.44.29-.67l.12-.28.28-.63c.05-.1.09-.2.13-.29s.07-.16.11-.23h0L17,8.15h-1.4c-.35,0-.69,0-1,0h-.17l-1,.07-.13,0-1,.11h-.06l-1,.16H11.1l-.95.2-.12,0L9.14,9Z"/><path class="cls-1" d="M31.07,35a.72.72,0,0,1,.67-1h4.38a.73.73,0,0,1,.67,1,3.08,3.08,0,0,1-5.72,0Z"/><path class="cls-1" d="M40.93,37.59a.43.43,0,0,1,.7.46,6.85,6.85,0,0,1-3.94,4.3,8.3,8.3,0,0,1-6.14-.42.43.43,0,0,1,.17-.83,14.83,14.83,0,0,0,4.81-1A14.43,14.43,0,0,0,40.93,37.59Z"/><path class="cls-1" d="M57.8,39.6c0-.13-.07-.26-.11-.4s-.07-.26-.11-.39l-.12-.42c0-.13-.08-.26-.11-.38s-.09-.29-.14-.43-.07-.26-.11-.38-.1-.29-.14-.44-.09-.24-.13-.37l-.15-.45-.12-.36-.18-.49c0-.11-.07-.21-.11-.32L56,34l0-.15,0-.14.3-.81c0-.11.08-.21.11-.32l.18-.49.12-.36.15-.45c0-.13.09-.25.13-.37s.09-.29.14-.44.07-.25.11-.38.09-.28.14-.42.07-.26.11-.39l.12-.42c0-.13.07-.26.11-.39s.08-.27.11-.4l.11-.41c0-.09.05-.19.07-.28l-.2-.21-.3-.3-.29-.28c-.1-.1-.2-.21-.31-.3L56.59,26l-.31-.29L56,25.38l-.31-.29-.32-.29L55,24.53l-.35-.31L54.39,24l-.4-.35-.25-.21-.66-.55-.13-.1,0-.15c-.09-.57-.19-1.14-.3-1.7l-.12-.56c-.07-.37-.14-.74-.22-1.11,0-.22-.11-.43-.16-.65s-.15-.66-.23-1l-.18-.66-.21-.81h0l-.76-.21L50,15.73l-1-.23-.66-.15-1.1-.23L46.72,15,45,14.7l-.15,0-.11-.12-.54-.67-.18-.2-.38-.45L43.45,13l-.36-.41-.22-.24L42.53,12l-.24-.25c-.11-.12-.22-.25-.34-.37l-.24-.26-.34-.34-.25-.26-.33-.34L40.65,10l-.12-.12-.24-.23L40,9.73l-.36.1-.44.12L39,10l-.17.05-.44.13-.36.1-.45.14-.35.11-.47.16-.34.1-.5.18-.31.1-.56.2-.25.09-.81.3-.15.06-.15-.06-.81-.3-.29-.1-.52-.19L31.71,11l-.47-.16-.35-.12-.46-.15-.35-.11-.46-.14-.35-.1-.45-.13L28.65,10,28.46,10,28,9.83l-.36-.1-.32-.08-.23.23L27,10l-.15.14-.32.34-.26.26-.33.34a3.07,3.07,0,0,1-.25.26l-.33.37-.24.25-.34.39-.23.24-.36.42c-.07.07-.13.15-.2.23l-.39.45-.17.2c-.18.22-.37.44-.55.67l-.1.12-.16,0-1.7.3-.56.12-1.11.23-.65.15-1,.23-.68.18-.8.22-.21.79c-.06.23-.13.46-.19.69s-.15.65-.23,1l-.15.66-.06.31c-.06.27-.12.54-.17.81s-.08.37-.11.55c-.11.56-.21,1.13-.3,1.7l0,.15-.12.11-.67.55-.2.17-.45.38-.24.22c-.14.11-.27.23-.4.35l-.26.23-.37.34-.27.24-.35.33-.28.26-.33.32-.28.27-.31.3-.28.29-.21.22c0,.1.05.2.07.3s.07.25.1.38l.12.43c0,.12.07.24.1.37s.09.29.13.44.07.24.11.36.09.3.14.45.07.24.11.36.1.3.14.45l.12.36.16.46.12.35c.05.17.11.33.17.5l.12.31c.09.27.19.54.29.81l.06.14-.06.15c-.1.27-.2.54-.29.81l-.12.32c-.06.16-.12.33-.17.49l-.12.36c-.06.15-.11.3-.16.45l-.12.37c0,.14-.09.29-.14.44s-.08.24-.11.37-.1.29-.14.44-.07.24-.11.37-.08.29-.13.43-.07.25-.1.38l-.12.42c0,.13-.07.26-.1.39s-.05.19-.07.29l.21.22.29.29.3.3.29.28.32.31.28.26.34.32.28.26.35.32.28.25.38.32.26.24.42.36.24.19c.21.19.44.37.66.55l.12.1,0,.16c.09.57.19,1.13.3,1.69,0,.19.07.39.11.58.08.36.15.73.23,1.08s.11.47.16.7.14.63.22.94.13.49.2.73.13.51.2.77a62.43,62.43,0,0,0,6.48,1.42c1.88.31,3.84.54,5.82.69a74.45,74.45,0,0,0,10.77,0c2-.15,3.95-.38,5.82-.69a62.06,62.06,0,0,0,6.49-1.42l.21-.8L51.9,50c.08-.32.16-.65.23-1s.11-.44.16-.66.15-.75.22-1.12l.12-.55c.11-.56.21-1.13.3-1.7l0-.16.13-.1.66-.55L54,44l.42-.36.26-.23L55,43.1l.27-.25.36-.32.27-.26c.12-.1.23-.21.34-.32l.28-.26.33-.31.28-.28.31-.3.29-.29.21-.22c0-.09,0-.19-.07-.28Zm-6.64-5.07a25.12,25.12,0,0,0-6.71-6.85l0,0-.16-.1h0a3.85,3.85,0,0,0-2-.58,3.94,3.94,0,0,0-1.84,7.43l.13.07c5.84,2.3,8.31,4.46,9.35,5.95a17.26,17.26,0,0,1-3.2,5.05c-1.22.63-3,1.4-4.32,1.13,0,0,.35.55,2,1l-.09.07a4.35,4.35,0,0,1-1.9.15,2.08,2.08,0,0,0,.83.59,17.39,17.39,0,0,1-18.71,0,2.08,2.08,0,0,0,.84-.59,4.29,4.29,0,0,1-1.89-.15l-.1-.07c1.63-.46,2-1,2-1-1.3.27-3.09-.5-4.32-1.13a17.13,17.13,0,0,1-3.2-5.05c1-1.49,3.5-3.65,9.34-5.95l.13-.07A3.94,3.94,0,0,0,25.41,27a3.82,3.82,0,0,0-2,.58h0l-.16.1s0,0,0,0a25,25,0,0,0-6.71,6.84c0-.23,0-.46,0-.7a17.29,17.29,0,0,1,5.37-12.55,13.87,13.87,0,0,1,5.9-1.15c2.43,0,4.6,1.4,6.05,2.14,1.45-.74,3.62-2.14,6-2.14a13.77,13.77,0,0,1,6.07,1.23,17.28,17.28,0,0,1,5.28,12.47C51.17,34.06,51.17,34.3,51.16,34.53Z"/></g></g></svg>